<svg width="42" height="42" viewBox="0 0 42 42" fill="none" xmlns="http://www.w3.org/2000/svg">
<path d="M42 21C42 32.598 32.598 42 21 42C9.40202 42 0 32.598 0 21C0 9.40202 9.40202 0 21 0C32.598 0 42 9.40202 42 21Z" fill="#737373"/>
<path d="M24.522 21.8865C25.4036 21.1928 26.0472 20.2416 26.363 19.1652C26.6789 18.0887 26.6514 16.9406 26.2844 15.8805C25.9174 14.8204 25.229 13.901 24.3152 13.2503C23.4013 12.5997 22.3074 12.25 21.1855 12.25C20.0637 12.25 18.9697 12.5997 18.0559 13.2503C17.142 13.901 16.4537 14.8204 16.0867 15.8805C15.7196 16.9406 15.6921 18.0887 16.008 19.1652C16.3239 20.2416 16.9674 21.1928 17.8491 21.8865C16.3383 22.4918 15.0201 23.4957 14.0351 24.7912C13.05 26.0867 12.4349 27.6252 12.2554 29.2428C12.2424 29.3609 12.2528 29.4804 12.286 29.5945C12.3192 29.7086 12.3746 29.815 12.4489 29.9077C12.599 30.0949 12.8173 30.2148 13.0558 30.2411C13.2943 30.2673 13.5335 30.1977 13.7207 30.0476C13.9079 29.8975 14.0278 29.6792 14.054 29.4407C14.2515 27.6827 15.0898 26.0591 16.4086 24.8801C17.7275 23.7011 19.4345 23.0493 21.2035 23.0493C22.9725 23.0493 24.6796 23.7011 25.9984 24.8801C27.3173 26.0591 28.1555 27.6827 28.353 29.4407C28.3774 29.6616 28.4829 29.8657 28.649 30.0135C28.815 30.1613 29.03 30.2424 29.2523 30.2411H29.3512C29.587 30.2139 29.8024 30.0947 29.9507 29.9094C30.0989 29.7241 30.1679 29.4878 30.1426 29.2518C29.9623 27.6297 29.3439 26.0871 28.3538 24.7896C27.3636 23.4921 26.039 22.4886 24.522 21.8865ZM21.1855 21.248C20.4741 21.248 19.7786 21.037 19.187 20.6418C18.5955 20.2465 18.1344 19.6847 17.8621 19.0274C17.5899 18.3701 17.5186 17.6468 17.6574 16.949C17.7962 16.2512 18.1388 15.6102 18.6419 15.1072C19.145 14.6041 19.786 14.2615 20.4837 14.1227C21.1815 13.9839 21.9048 14.0551 22.5621 14.3274C23.2194 14.5996 23.7812 15.0607 24.1765 15.6523C24.5718 16.2438 24.7827 16.9393 24.7827 17.6508C24.7827 18.6048 24.4038 19.5198 23.7291 20.1944C23.0545 20.869 22.1396 21.248 21.1855 21.248Z" fill="#737373"/>
</svg>
