<svg width="19" height="12" viewBox="0 0 19 12" fill="none" xmlns="http://www.w3.org/2000/svg">
<path d="M12.5 5C13.8833 5 14.9917 3.88333 14.9917 2.5C14.9917 1.11667 13.8833 0 12.5 0C11.1167 0 10 1.11667 10 2.5C10 3.88333 11.1167 5 12.5 5ZM5.83333 5C7.21667 5 8.325 3.88333 8.325 2.5C8.325 1.11667 7.21667 0 5.83333 0C4.45 0 3.33333 1.11667 3.33333 2.5C3.33333 3.88333 4.45 5 5.83333 5ZM5.83333 6.66667C3.89167 6.66667 0 7.64167 0 9.58333V10.8333C0 11.2917 0.375 11.6667 0.833333 11.6667H10.8333C11.2917 11.6667 11.6667 11.2917 11.6667 10.8333V9.58333C11.6667 7.64167 7.775 6.66667 5.83333 6.66667ZM12.5 6.66667C12.2583 6.66667 11.9833 6.68333 11.6917 6.70833C11.7083 6.71667 11.7167 6.73333 11.725 6.74167C12.675 7.43333 13.3333 8.35833 13.3333 9.58333V10.8333C13.3333 11.125 13.275 11.4083 13.1833 11.6667H17.5C17.9583 11.6667 18.3333 11.2917 18.3333 10.8333V9.58333C18.3333 7.64167 14.4417 6.66667 12.5 6.66667Z" fill="white"/>
</svg>
