<svg width="72" height="72" viewBox="0 0 72 72" fill="none" xmlns="http://www.w3.org/2000/svg">
<rect width="72" height="72" rx="36" fill="#ECECEC"/>
<path d="M32.7828 41.2107L30.5835 39.0113C30.4198 38.8523 30.2007 38.7634 29.9725 38.7634C29.7444 38.7634 29.5252 38.8523 29.3616 39.0113C29.2026 39.1749 29.1137 39.3941 29.1137 39.6222C29.1137 39.8504 29.2026 40.0695 29.3616 40.2332L31.561 42.4325C31.8916 42.7632 32.4378 42.7632 32.7828 42.4325C33.1278 42.1019 33.1278 41.5557 32.7828 41.2107ZM27.6941 41.915L29.8935 44.1144C30.2241 44.445 30.2241 44.9913 29.8935 45.3363C29.7298 45.4952 29.5107 45.5841 29.2825 45.5841C29.0544 45.5841 28.8352 45.4952 28.6716 45.3363L26.4722 43.1369C26.3133 42.9733 26.2244 42.7541 26.2244 42.526C26.2244 42.2978 26.3133 42.0787 26.4722 41.915C26.6359 41.7561 26.855 41.6672 27.0832 41.6672C27.3113 41.6672 27.5304 41.7561 27.6941 41.915Z" fill="#737373"/>
<path d="M52.5485 16.6582C52.4979 16.539 52.4242 16.4309 52.3317 16.3403C52.2391 16.2497 52.1296 16.1783 52.0093 16.1302C51.8891 16.0821 51.7605 16.0582 51.631 16.06C51.5015 16.0618 51.3736 16.0893 51.2547 16.1407C50.7516 16.3563 50.5216 16.9313 50.7372 17.4344C50.8379 17.6644 51.0104 17.8226 51.226 17.9232C51.4129 18.0094 51.571 18.1388 51.6572 18.3257L51.8872 18.8547L50.546 19.4728L50.3204 18.9582C50.2439 18.77 50.2388 18.5605 50.306 18.3688C50.3635 18.1676 50.3635 17.9232 50.2772 17.6932C50.2266 17.574 50.1529 17.4659 50.0604 17.3753C49.9679 17.2847 49.8583 17.2133 49.7381 17.1652C49.6178 17.1171 49.4892 17.0932 49.3597 17.095C49.2302 17.0968 49.1023 17.1243 48.9835 17.1757C48.4804 17.3913 48.2504 17.9663 48.466 18.4694C48.5666 18.6994 48.7391 18.8576 48.9547 18.9582C49.1416 19.0444 49.2997 19.1738 49.386 19.3607L49.6217 19.8998L48.2662 20.5251L48.0362 19.9932C47.9947 19.9008 47.9721 19.8012 47.9697 19.7C47.9672 19.5988 47.9849 19.4981 48.0218 19.4038C48.0983 19.1831 48.088 18.9416 47.993 18.7282C47.9424 18.609 47.8688 18.5009 47.7762 18.4103C47.6837 18.3197 47.5741 18.2483 47.4539 18.2002C47.3336 18.1521 47.205 18.1282 47.0755 18.13C46.946 18.1318 46.8182 18.1593 46.6993 18.2107C46.1962 18.4263 45.9662 19.0013 46.1818 19.5044C46.2824 19.7344 46.4549 19.8926 46.6705 19.9932C46.8574 20.0794 47.0155 20.2088 47.1018 20.3957L47.3419 20.9506L46.7985 21.2007C46.6583 21.2798 46.5368 21.3882 46.4423 21.5185C46.3478 21.6488 46.2824 21.7979 46.2506 21.9557C46.2188 22.1135 46.2214 22.2763 46.2581 22.433C46.2949 22.5897 46.3649 22.7367 46.4635 22.8639L46.3529 22.7532L34.0507 35.0553C33.7096 34.1862 33.6268 33.237 33.8125 32.3219C33.9982 31.4069 34.4443 30.565 35.0972 29.8976C35.9597 29.0207 36.0029 27.6119 35.1404 26.7351C34.2779 25.8582 32.8547 25.8582 31.9922 26.7207C30.6554 28.0576 29.8072 29.7107 29.4622 31.4501C29.0741 33.4051 27.421 34.8282 25.4372 35.0151C23.051 35.2307 20.7366 36.2513 18.9254 38.0769C14.8572 42.1882 14.9147 48.9588 19.0691 52.9838C23.166 56.9657 29.721 56.9226 33.7747 52.8688C35.5151 51.1205 36.5839 48.8149 36.7935 46.3569C36.8781 45.395 37.2729 44.4866 37.9185 43.7685C38.564 43.0504 39.4254 42.5614 40.3729 42.3751C41.1635 42.2169 41.9397 41.9438 42.6872 41.5701C43.7797 41.0238 44.2254 39.6869 43.6791 38.5944C43.4151 38.0692 42.9538 37.6699 42.3961 37.484C41.8384 37.2981 41.2298 37.3407 40.7035 37.6026C40.0932 37.9105 39.4242 38.0845 38.7412 38.113C38.0582 38.1415 37.377 38.0238 36.7432 37.7679L49.051 25.4614C49.1687 25.5632 49.3063 25.6394 49.4551 25.6851C49.6038 25.7308 49.7604 25.7451 49.915 25.7269C50.0695 25.7088 50.2186 25.6587 50.3527 25.5799C50.4869 25.501 50.6031 25.3951 50.6941 25.2688L52.2466 22.6669C52.4191 22.3794 52.7641 22.2501 53.0804 22.3794C53.8997 22.6957 54.8629 22.5232 55.4954 21.8332C56.2716 20.9994 56.286 19.6913 55.5241 18.8576C54.8054 18.0684 53.7905 18.0267 52.8044 18.4364L52.5772 17.9376C52.5008 17.7494 52.4957 17.5399 52.5629 17.3482C52.6491 17.1326 52.6491 16.8882 52.5485 16.6582ZM32.021 35.0294C32.4609 35.2839 32.7771 35.7094 32.8892 36.2168L32.6535 36.4526C32.2941 36.8119 32.2941 37.3869 32.6535 37.7319L34.0766 39.1551C34.4274 39.5058 34.9837 39.5144 35.3315 39.1809C35.7484 39.2931 36.3881 39.3836 36.8021 39.4426L37.0954 39.4857C37.1308 39.4924 37.1644 39.4972 37.196 39.5001C37.2276 39.5029 37.2611 39.5077 37.2966 39.5144L37.321 39.5173C37.6028 39.5489 38.4035 39.6395 39.3379 39.4569C39.3982 39.4464 39.4596 39.4344 39.5219 39.421C40.0494 39.3146 40.6647 39.191 40.9335 39.9601C41.0341 40.2188 40.9479 40.5207 40.5741 40.7651C40.3585 40.9088 39.8266 41.1101 39.5822 41.1676C38.4035 41.4407 37.5697 41.9151 36.7935 42.7632C35.7585 43.7407 35.126 44.9194 34.896 46.1988C34.7235 47.1763 34.551 48.1395 34.1485 49.0307C33.7172 49.9507 33.1422 50.7844 32.4091 51.5176C31.5754 52.3657 30.5979 52.9982 29.5197 53.4294C28.5135 53.8319 27.3491 53.3576 26.961 52.3513C26.8747 52.1357 26.8316 51.8913 26.8316 51.6613C26.8359 51.2991 26.9222 50.8923 27.0127 50.4653C27.2427 49.3858 27.4986 48.1739 26.5297 47.2051L23.2954 43.9707C21.8579 42.5332 21.8291 40.1901 23.2522 38.7238L23.281 38.6951C24.4166 37.5451 25.9116 36.9557 27.4785 36.8982C28.4129 36.8551 29.2179 36.3807 29.6635 35.6476C30.0229 35.0582 30.6841 34.7419 31.3597 34.8138C31.5897 34.8426 31.8197 34.9144 32.021 35.0294ZM26.501 48.7863C26.6447 48.9301 26.6447 49.1601 26.4866 49.2894L24.9629 50.8132C24.8191 50.9569 24.5891 50.9569 24.4454 50.8132L20.981 47.3488C20.8372 47.2051 20.8372 46.9751 20.981 46.8313L22.5191 45.3219C22.6629 45.1782 22.8929 45.1782 23.0366 45.3219L26.501 48.7863Z" fill="#737373"/>
</svg>
