<svg width="16" height="16" viewBox="0 0 16 16" fill="none" xmlns="http://www.w3.org/2000/svg">
<path d="M12.6666 4.33339H11.8133L11.6 3.66672C11.4617 3.27554 11.2051 2.93706 10.8659 2.69816C10.5267 2.45927 10.1216 2.33179 9.70665 2.33339H6.29331C5.87434 2.33417 5.4662 2.46651 5.12649 2.71173C4.78678 2.95694 4.53265 3.30265 4.39998 3.70006L4.18665 4.36672H3.33331C2.80288 4.36672 2.29417 4.57744 1.9191 4.95251C1.54403 5.32758 1.33331 5.83629 1.33331 6.36672V11.7001C1.33331 12.2305 1.54403 12.7392 1.9191 13.1143C2.29417 13.4893 2.80288 13.7001 3.33331 13.7001H12.6666C13.1971 13.7001 13.7058 13.4893 14.0809 13.1143C14.4559 12.7392 14.6666 12.2305 14.6666 11.7001V6.36672C14.6711 6.10129 14.6226 5.83763 14.5241 5.59111C14.4256 5.3446 14.2789 5.12017 14.0928 4.93091C13.9066 4.74165 13.6846 4.59134 13.4398 4.48875C13.1949 4.38617 12.9321 4.33335 12.6666 4.33339ZM13.3333 11.6667C13.3333 11.8435 13.2631 12.0131 13.1381 12.1381C13.013 12.2632 12.8435 12.3334 12.6666 12.3334H3.33331C3.1565 12.3334 2.98693 12.2632 2.86191 12.1381C2.73688 12.0131 2.66665 11.8435 2.66665 11.6667V6.33339C2.66665 6.15658 2.73688 5.98701 2.86191 5.86198C2.98693 5.73696 3.1565 5.66672 3.33331 5.66672H4.66665C4.81202 5.67431 4.95589 5.6341 5.07627 5.55225C5.19665 5.47039 5.28693 5.35138 5.33331 5.21339L5.69331 4.12006C5.73804 3.98764 5.82324 3.87263 5.93689 3.79128C6.05054 3.70993 6.18688 3.66636 6.32665 3.66672H9.73998C9.87974 3.66636 10.0161 3.70993 10.1297 3.79128C10.2434 3.87263 10.3286 3.98764 10.3733 4.12006L10.7333 5.21339C10.7761 5.34055 10.8562 5.45185 10.9633 5.53273C11.0703 5.61361 11.1993 5.66031 11.3333 5.66672H12.6666C12.8435 5.66672 13.013 5.73696 13.1381 5.86198C13.2631 5.98701 13.3333 6.15658 13.3333 6.33339V11.6667ZM7.99998 5.66672C7.47256 5.66672 6.95699 5.82312 6.51846 6.11614C6.07993 6.40915 5.73813 6.82563 5.5363 7.3129C5.33447 7.80017 5.28166 8.33635 5.38455 8.85363C5.48745 9.37091 5.74142 9.84607 6.11436 10.219C6.4873 10.5919 6.96246 10.8459 7.47974 10.9488C7.99702 11.0517 8.5332 10.9989 9.02047 10.7971C9.50774 10.5952 9.92422 10.2534 10.2172 9.81491C10.5102 9.37638 10.6666 8.86081 10.6666 8.33339C10.6666 7.62614 10.3857 6.94787 9.8856 6.44777C9.3855 5.94767 8.70722 5.66672 7.99998 5.66672ZM7.99998 9.66672C7.73627 9.66672 7.47849 9.58852 7.25922 9.44201C7.03995 9.29551 6.86906 9.08727 6.76814 8.84363C6.66722 8.6 6.64082 8.33191 6.69227 8.07327C6.74371 7.81463 6.8707 7.57705 7.05717 7.39058C7.24364 7.20411 7.48122 7.07712 7.73986 7.02567C7.9985 6.97423 8.26659 7.00063 8.51022 7.10155C8.75386 7.20247 8.9621 7.37336 9.10861 7.59263C9.25511 7.81189 9.33331 8.06968 9.33331 8.33339C9.33331 8.68701 9.19284 9.02615 8.94279 9.2762C8.69274 9.52625 8.3536 9.66672 7.99998 9.66672Z" fill="#141414"/>
</svg>
