<svg width="120" height="120" viewBox="0 0 120 120" fill="none" xmlns="http://www.w3.org/2000/svg">
<path fill-rule="evenodd" clip-rule="evenodd" d="M10 60C10 32.3858 32.3858 10 60 10C73.2608 10 85.9785 15.2678 95.3553 24.6447C104.732 34.0215 110 46.7392 110 60C110 87.6142 87.6142 110 60 110C32.3858 110 10 87.6142 10 60ZM53.55 78.55L83.55 48.55C85.5106 46.5894 85.5106 43.4106 83.55 41.45C81.5894 39.4894 78.4106 39.4894 76.45 41.45L50 67.95L43.55 61.45C42.2817 60.1817 40.4331 59.6864 38.7006 60.1506C36.9681 60.6148 35.6148 61.9681 35.1506 63.7006C34.6864 65.4331 35.1817 67.2817 36.45 68.55L46.45 78.55C47.3888 79.4966 48.6668 80.029 50 80.029C51.3332 80.029 52.6112 79.4966 53.55 78.55Z" fill="#FBB10E"/>
</svg>
