<svg width="16" height="16" viewBox="0 0 16 16" fill="none" xmlns="http://www.w3.org/2000/svg">
<path d="M8.9426 7.99997L11.1379 5.80464C11.2616 5.67936 11.3308 5.51022 11.3302 5.33416C11.3296 5.1581 11.2595 4.9894 11.135 4.86491C11.0105 4.74041 10.8418 4.67023 10.6657 4.66968C10.4896 4.66913 10.3205 4.73826 10.1952 4.86197L7.99989 7.05727L5.80456 4.86197C5.67916 4.73883 5.51022 4.67019 5.33447 4.67099C5.15873 4.67178 4.99041 4.74195 4.86614 4.86622C4.74187 4.99049 4.6717 5.15881 4.67091 5.33456C4.67011 5.5103 4.73875 5.67925 4.86189 5.80464L7.05718 7.99997L4.86189 10.1953C4.73875 10.3207 4.67011 10.4896 4.67091 10.6654C4.6717 10.8411 4.74187 11.0095 4.86614 11.1337C4.99041 11.258 5.15873 11.3282 5.33447 11.329C5.51022 11.3298 5.67916 11.2611 5.80456 11.138L7.99989 8.94268L10.1952 11.138C10.3205 11.2617 10.4896 11.3308 10.6657 11.3303C10.8418 11.3297 11.0105 11.2595 11.135 11.135C11.2594 11.0105 11.3296 10.8418 11.3302 10.6658C11.3307 10.4897 11.2616 10.3206 11.1379 10.1953L8.9426 7.99997Z" fill="#F5F5F5"/>
<path d="M12.7143 3.28604C11.4641 2.03585 9.76844 1.3335 8.0004 1.3335C6.23236 1.3335 4.53673 2.03585 3.28653 3.28604C2.03634 4.53624 1.33398 6.23187 1.33398 7.99991C1.33398 9.76795 2.03634 11.4636 3.28653 12.7138C4.53673 13.964 6.23236 14.6663 8.0004 14.6663C9.76844 14.6663 11.4641 13.964 12.7143 12.7138C13.9645 11.4636 14.6668 9.76795 14.6668 7.99991C14.6668 6.23187 13.9645 4.53624 12.7143 3.28604ZM11.1384 10.1952C11.2012 10.2569 11.2512 10.3305 11.2854 10.4116C11.3197 10.4927 11.3375 10.5798 11.3379 10.6678C11.3383 10.7559 11.3213 10.8431 11.2878 10.9245C11.2543 11.006 11.2049 11.0799 11.1427 11.1422C11.0804 11.2045 11.0065 11.2538 10.925 11.2873C10.8436 11.3208 10.7564 11.3378 10.6683 11.3374C10.5803 11.337 10.4932 11.3192 10.4121 11.285C10.3309 11.2507 10.2574 11.2007 10.1957 11.1379L8.0004 8.94262L5.80507 11.1379C5.67967 11.2611 5.51073 11.3297 5.33498 11.3289C5.15924 11.3281 4.99092 11.2579 4.86665 11.1337C4.74238 11.0094 4.67221 10.8411 4.67141 10.6653C4.67062 10.4896 4.73926 10.3206 4.8624 10.1952L7.05769 7.99991L4.8624 5.80458C4.73926 5.67919 4.67062 5.51024 4.67141 5.33449C4.67221 5.15875 4.74238 4.99043 4.86665 4.86616C4.99092 4.74189 5.15924 4.67172 5.33498 4.67093C5.51073 4.67013 5.67967 4.73877 5.80507 4.86191L8.0004 7.0572L10.1957 4.86187C10.321 4.73816 10.4901 4.66904 10.6662 4.6696C10.8423 4.67016 11.011 4.74035 11.1355 4.86485C11.26 4.98935 11.3301 5.15804 11.3307 5.33411C11.3312 5.51017 11.2621 5.6793 11.1384 5.80458L8.94311 7.99991L11.1384 10.1952Z" fill="#D4D4D4"/>
</svg>
