<svg xmlns="http://www.w3.org/2000/svg" width="22" height="22" fill="none" viewBox="0 0 22 22">
  <path fill="#141414" d="M14.502 18.333h4.748a.916.916 0 1 0 0-1.833h-4.748a2.75 2.75 0 0 0-5.17 0H2.75a.917.917 0 0 0 0 1.833h6.582a2.75 2.75 0 0 0 5.17 0ZM11 17.416a.917.917 0 1 1 1.834 0 .917.917 0 0 1-1.834 0Zm-1.998-5.5H19.25a.917.917 0 0 0 0-1.833H9.002a2.75 2.75 0 0 0-5.17 0H2.75a.917.917 0 0 0 0 1.833h1.082a2.75 2.75 0 0 0 5.17 0ZM5.5 11a.917.917 0 1 1 1.834 0A.917.917 0 0 1 5.5 11Zm10.835-5.5h2.915a.917.917 0 0 0 0-1.834h-2.915a2.75 2.75 0 0 0-5.17 0H2.75a.917.917 0 0 0 0 1.834h8.415a2.75 2.75 0 0 0 5.17 0Zm-3.502-.917a.917.917 0 1 1 1.834 0 .917.917 0 0 1-1.834 0Z"/>
</svg>
