<svg width="16" height="16" viewBox="0 0 16 16" fill="none" xmlns="http://www.w3.org/2000/svg">
<path d="M12.6666 1.33337H3.33331C2.80288 1.33337 2.29417 1.54409 1.9191 1.91916C1.54403 2.29423 1.33331 2.80294 1.33331 3.33337V12.6667C1.33331 13.1971 1.54403 13.7058 1.9191 14.0809C2.29417 14.456 2.80288 14.6667 3.33331 14.6667H12.6666C12.7763 14.6652 12.8856 14.654 12.9933 14.6334L13.1933 14.5867H13.24H13.2733L13.52 14.4934L13.6066 14.4467C13.6733 14.4067 13.7466 14.3734 13.8133 14.3267C13.9023 14.2612 13.987 14.1899 14.0666 14.1134L14.1133 14.0534C14.1788 13.987 14.2389 13.9157 14.2933 13.84L14.3533 13.7534C14.3999 13.6792 14.44 13.6011 14.4733 13.52C14.4916 13.4881 14.5072 13.4546 14.52 13.42C14.5533 13.34 14.5733 13.2534 14.6 13.1667V13.0667C14.6378 12.9364 14.6602 12.8022 14.6666 12.6667V3.33337C14.6666 2.80294 14.4559 2.29423 14.0809 1.91916C13.7058 1.54409 13.1971 1.33337 12.6666 1.33337ZM3.33331 13.3334C3.1565 13.3334 2.98693 13.2631 2.86191 13.1381C2.73688 13.0131 2.66665 12.8435 2.66665 12.6667V9.79337L4.85998 7.59337C4.92195 7.53089 4.99569 7.48129 5.07693 7.44745C5.15817 7.4136 5.2453 7.39617 5.33331 7.39617C5.42132 7.39617 5.50846 7.4136 5.5897 7.44745C5.67094 7.48129 5.74467 7.53089 5.80665 7.59337L11.54 13.3334H3.33331ZM13.3333 12.6667C13.3327 12.7489 13.3169 12.8303 13.2866 12.9067C13.2714 12.9392 13.2536 12.9704 13.2333 13C13.2155 13.0283 13.1954 13.055 13.1733 13.08L9.60665 9.51337L10.1933 8.92671C10.2553 8.86422 10.329 8.81462 10.4103 8.78078C10.4915 8.74693 10.5786 8.72951 10.6666 8.72951C10.7547 8.72951 10.8418 8.74693 10.923 8.78078C11.0043 8.81462 11.078 8.86422 11.14 8.92671L13.3333 11.1267V12.6667ZM13.3333 9.24004L12.08 8.00004C11.6985 7.63803 11.1926 7.43623 10.6666 7.43623C10.1407 7.43623 9.63483 7.63803 9.25331 8.00004L8.66665 8.58671L6.74665 6.66671C6.36513 6.3047 5.85924 6.10289 5.33331 6.10289C4.80738 6.10289 4.3015 6.3047 3.91998 6.66671L2.66665 7.90671V3.33337C2.66665 3.15656 2.73688 2.98699 2.86191 2.86197C2.98693 2.73695 3.1565 2.66671 3.33331 2.66671H12.6666C12.8435 2.66671 13.013 2.73695 13.1381 2.86197C13.2631 2.98699 13.3333 3.15656 13.3333 3.33337V9.24004ZM8.99998 4.00004C8.8022 4.00004 8.60886 4.05869 8.44441 4.16857C8.27996 4.27845 8.15179 4.43463 8.0761 4.61736C8.00041 4.80008 7.98061 5.00115 8.01919 5.19513C8.05778 5.38911 8.15302 5.56729 8.29287 5.70715C8.43272 5.847 8.61091 5.94224 8.80489 5.98083C8.99887 6.01941 9.19994 5.99961 9.38266 5.92392C9.56539 5.84823 9.72157 5.72006 9.83145 5.55561C9.94133 5.39116 9.99998 5.19782 9.99998 5.00004C9.99998 4.73482 9.89462 4.48047 9.70709 4.29293C9.51955 4.1054 9.2652 4.00004 8.99998 4.00004Z" fill="#141414"/>
</svg>
