<svg width="14" height="14" viewBox="0 0 14 14" fill="none" xmlns="http://www.w3.org/2000/svg">
<path d="M7.00004 1.16602C5.76236 1.16602 4.57538 1.65768 3.70021 2.53285C2.82504 3.40802 2.33337 4.59501 2.33337 5.83268C2.33337 8.98268 6.44587 12.541 6.62087 12.6927C6.72653 12.7831 6.861 12.8327 7.00004 12.8327C7.13908 12.8327 7.27355 12.7831 7.37921 12.6927C7.58337 12.541 11.6667 8.98268 11.6667 5.83268C11.6667 4.59501 11.175 3.40802 10.2999 2.53285C9.4247 1.65768 8.23772 1.16602 7.00004 1.16602ZM7.00004 11.4618C5.75754 10.2952 3.50004 7.78102 3.50004 5.83268C3.50004 4.90442 3.86879 4.01419 4.52517 3.35781C5.18154 2.70143 6.07178 2.33268 7.00004 2.33268C7.9283 2.33268 8.81854 2.70143 9.47491 3.35781C10.1313 4.01419 10.5 4.90442 10.5 5.83268C10.5 7.78102 8.24254 10.301 7.00004 11.4618ZM7.00004 3.49935C6.53855 3.49935 6.08742 3.6362 5.70371 3.89259C5.32 4.14898 5.02093 4.51339 4.84432 4.93975C4.66772 5.36612 4.62151 5.83527 4.71154 6.28789C4.80157 6.74052 5.0238 7.15628 5.35012 7.4826C5.67645 7.80892 6.09221 8.03115 6.54483 8.12118C6.99745 8.21121 7.46661 8.16501 7.89297 7.9884C8.31933 7.8118 8.68375 7.51273 8.94014 7.12901C9.19653 6.7453 9.33337 6.29417 9.33337 5.83268C9.33337 5.21384 9.08754 4.62035 8.64996 4.18277C8.21237 3.74518 7.61888 3.49935 7.00004 3.49935ZM7.00004 6.99935C6.7693 6.99935 6.54373 6.93092 6.35188 6.80273C6.16002 6.67453 6.01048 6.49233 5.92218 6.27915C5.83388 6.06597 5.81077 5.83139 5.85579 5.60508C5.90081 5.37877 6.01192 5.17089 6.17508 5.00772C6.33824 4.84456 6.54612 4.73345 6.77244 4.68843C6.99875 4.64342 7.23332 4.66652 7.4465 4.75482C7.65968 4.84312 7.84189 4.99266 7.97009 5.18452C8.09828 5.37637 8.16671 5.60194 8.16671 5.83268C8.16671 6.1421 8.04379 6.43885 7.825 6.65764C7.60621 6.87643 7.30946 6.99935 7.00004 6.99935Z" fill="#525252"/>
</svg>
