<svg width="15" height="18" viewBox="0 0 15 18" fill="none" xmlns="http://www.w3.org/2000/svg">
<path d="M5.94892 14.085L4.61114 15.6434C4.26035 16.0639 3.78457 16.3002 3.28847 16.3002C2.79238 16.3002 2.3166 16.0639 1.96581 15.6434C1.61502 15.2229 1.41794 14.6525 1.41794 14.0578C1.41794 13.4631 1.61502 12.8927 1.96581 12.4722L5.39718 8.34957C5.73398 7.94451 6.18778 7.71014 6.66469 7.69497C7.1416 7.67979 7.60513 7.88496 7.95938 8.26803L8.05008 8.35863C8.1934 8.52685 8.38659 8.61992 8.58716 8.61737C8.78772 8.61482 8.97923 8.51686 9.11955 8.34504C9.25986 8.17323 9.3375 7.94163 9.33537 7.70119C9.33325 7.46075 9.25153 7.23117 9.10821 7.06296C9.06555 6.99684 9.02015 6.93334 8.97216 6.87269C8.32697 6.19977 7.49254 5.84598 6.6379 5.88299C5.78325 5.92 4.97229 6.34505 4.36928 7.07202L0.892558 11.1946C0.301785 11.9655 -0.0177232 12.9802 0.00075939 14.0267C0.019242 15.0733 0.374286 16.0709 0.991745 16.8111C1.6092 17.5513 2.44134 17.9769 3.31436 17.9991C4.18738 18.0212 5.03379 17.6382 5.67683 16.93L6.98438 15.3988C7.11349 15.2299 7.18446 15.0087 7.18302 14.7797C7.18157 14.5506 7.10782 14.3307 6.97661 14.1643C6.84539 13.9978 6.66644 13.897 6.47577 13.8823C6.2851 13.8676 6.09686 13.94 5.94892 14.085ZM14.0285 1.18261C13.3927 0.425142 12.5328 0 11.6364 0C10.74 0 9.88006 0.425142 9.24426 1.18261L7.9367 2.71385C7.8076 2.8827 7.73663 3.1039 7.73807 3.33294C7.73951 3.56198 7.81326 3.78187 7.94448 3.94835C8.0757 4.11484 8.25464 4.21558 8.44531 4.23029C8.63598 4.245 8.82423 4.1726 8.97216 4.02765L10.2797 2.46922C10.6305 2.04869 11.1063 1.81244 11.6024 1.81244C12.0985 1.81244 12.5743 2.04869 12.925 2.46922C13.2758 2.88975 13.4729 3.46011 13.4729 4.05483C13.4729 4.64955 13.2758 5.21991 12.925 5.64044L9.49367 9.76303C9.15687 10.1681 8.70308 10.4025 8.22617 10.4176C7.74926 10.4328 7.28573 10.2277 6.93148 9.84458L6.84078 9.75397C6.69746 9.58576 6.50426 9.49269 6.3037 9.49524C6.10313 9.49779 5.91163 9.59575 5.77131 9.76756C5.63099 9.93938 5.55336 10.171 5.55548 10.4114C5.55761 10.6519 5.63932 10.8814 5.78265 11.0496C5.83755 11.117 5.89559 11.1805 5.95648 11.2399C6.60246 11.9108 7.43653 12.2633 8.29065 12.2263C9.14477 12.1893 9.95546 11.7656 10.5594 11.0406L13.9983 6.91799C14.6342 6.16059 14.9943 5.13235 14.9999 4.05777C15.0056 2.9832 14.6564 1.94958 14.0285 1.18261Z" fill="white"/>
</svg>
