<svg width="15" height="15" viewBox="0 0 15 15" fill="none" xmlns="http://www.w3.org/2000/svg">
<path d="M11.95 1.38129C11.8765 1.31962 11.7898 1.27571 11.6966 1.25295C11.6034 1.23019 11.5062 1.22919 11.4125 1.25004L6.4125 2.50004C6.27383 2.53426 6.15106 2.61494 6.06463 2.72866C5.97821 2.84238 5.93334 2.98227 5.9375 3.12504V9.59379C5.64548 9.45115 5.32499 9.37637 5 9.37504C4.56735 9.37504 4.14442 9.50333 3.78469 9.7437C3.42496 9.98407 3.14458 10.3257 2.97901 10.7254C2.81345 11.1251 2.77013 11.565 2.85453 11.9893C2.93894 12.4136 3.14728 12.8034 3.4532 13.1093C3.75913 13.4153 4.14891 13.6236 4.57324 13.708C4.99757 13.7924 5.43741 13.7491 5.83712 13.5835C6.23683 13.418 6.57848 13.1376 6.81884 12.7778C7.05921 12.4181 7.1875 11.9952 7.1875 11.5625V6.73754L11.7125 5.62504H11.7563L11.875 5.53129L11.9688 5.46879C11.9991 5.44053 12.0263 5.4091 12.05 5.37504C12.0744 5.34631 12.0954 5.31485 12.1125 5.28129C12.1314 5.24625 12.1441 5.20818 12.15 5.16879C12.1565 5.12948 12.1565 5.08935 12.15 5.05004C12.1528 5.03349 12.1528 5.01659 12.15 5.00004V1.87504C12.1551 1.78309 12.1398 1.69115 12.1052 1.60579C12.0707 1.52043 12.0177 1.44377 11.95 1.38129ZM5 12.5C4.81458 12.5 4.63332 12.4451 4.47915 12.342C4.32498 12.239 4.20482 12.0926 4.13386 11.9213C4.06291 11.75 4.04434 11.5615 4.08051 11.3796C4.11669 11.1978 4.20598 11.0307 4.33709 10.8996C4.4682 10.7685 4.63525 10.6792 4.8171 10.6431C4.99896 10.6069 5.18746 10.6254 5.35877 10.6964C5.53007 10.7674 5.67649 10.8875 5.7795 11.0417C5.88252 11.1959 5.9375 11.3771 5.9375 11.5625C5.9375 11.8112 5.83873 12.0496 5.66291 12.2255C5.4871 12.4013 5.24864 12.5 5 12.5ZM10.9375 4.51254L7.1875 5.45004V3.61254L10.9375 2.67504V4.51254Z" fill="black"/>
</svg>
