<svg width="15" height="15" viewBox="0 0 15 15" fill="none" xmlns="http://www.w3.org/2000/svg">
<path d="M5.625 6.25H6.25C6.41576 6.25 6.57473 6.18415 6.69194 6.06694C6.80915 5.94973 6.875 5.79076 6.875 5.625C6.875 5.45924 6.80915 5.30027 6.69194 5.18306C6.57473 5.06585 6.41576 5 6.25 5H5.625C5.45924 5 5.30027 5.06585 5.18306 5.18306C5.06585 5.30027 5 5.45924 5 5.625C5 5.79076 5.06585 5.94973 5.18306 6.06694C5.30027 6.18415 5.45924 6.25 5.625 6.25ZM5.625 7.5C5.45924 7.5 5.30027 7.56585 5.18306 7.68306C5.06585 7.80027 5 7.95924 5 8.125C5 8.29076 5.06585 8.44973 5.18306 8.56694C5.30027 8.68415 5.45924 8.75 5.625 8.75H9.375C9.54076 8.75 9.69973 8.68415 9.81694 8.56694C9.93415 8.44973 10 8.29076 10 8.125C10 7.95924 9.93415 7.80027 9.81694 7.68306C9.69973 7.56585 9.54076 7.5 9.375 7.5H5.625ZM12.5 5.5875C12.4935 5.53008 12.4809 5.47352 12.4625 5.41875V5.3625C12.4324 5.29824 12.3924 5.23917 12.3437 5.1875L8.59375 1.4375C8.54208 1.38889 8.48301 1.3488 8.41875 1.31875C8.40009 1.3161 8.38116 1.3161 8.3625 1.31875C8.29901 1.28234 8.22889 1.25897 8.15625 1.25H4.375C3.87772 1.25 3.40081 1.44754 3.04917 1.79917C2.69754 2.15081 2.5 2.62772 2.5 3.125V11.875C2.5 12.3723 2.69754 12.8492 3.04917 13.2008C3.40081 13.5525 3.87772 13.75 4.375 13.75H10.625C11.1223 13.75 11.5992 13.5525 11.9508 13.2008C12.3025 12.8492 12.5 12.3723 12.5 11.875V5.625C12.5 5.625 12.5 5.625 12.5 5.5875ZM8.75 3.38125L10.3687 5H9.375C9.20924 5 9.05027 4.93415 8.93306 4.81694C8.81585 4.69973 8.75 4.54076 8.75 4.375V3.38125ZM11.25 11.875C11.25 12.0408 11.1842 12.1997 11.0669 12.3169C10.9497 12.4342 10.7908 12.5 10.625 12.5H4.375C4.20924 12.5 4.05027 12.4342 3.93306 12.3169C3.81585 12.1997 3.75 12.0408 3.75 11.875V3.125C3.75 2.95924 3.81585 2.80027 3.93306 2.68306C4.05027 2.56585 4.20924 2.5 4.375 2.5H7.5V4.375C7.5 4.87228 7.69754 5.3492 8.04917 5.70083C8.4008 6.05246 8.87772 6.25 9.375 6.25H11.25V11.875ZM9.375 10H5.625C5.45924 10 5.30027 10.0658 5.18306 10.1831C5.06585 10.3003 5 10.4592 5 10.625C5 10.7908 5.06585 10.9497 5.18306 11.0669C5.30027 11.1842 5.45924 11.25 5.625 11.25H9.375C9.54076 11.25 9.69973 11.1842 9.81694 11.0669C9.93415 10.9497 10 10.7908 10 10.625C10 10.4592 9.93415 10.3003 9.81694 10.1831C9.69973 10.0658 9.54076 10 9.375 10Z" fill="black"/>
</svg>
