<svg width="62" height="62" viewBox="0 0 62 62" fill="none" xmlns="http://www.w3.org/2000/svg">
<path opacity="0.99" d="M26.6399 41.5755C26.3006 41.5759 25.9646 41.5093 25.6512 41.3794C25.3377 41.2495 25.0531 41.0589 24.8135 40.8186L17.5479 33.5531C17.0685 33.0676 16.8006 32.4123 16.8027 31.73C16.8049 31.0478 17.0768 30.3941 17.5593 29.9116C18.0417 29.4292 18.6954 29.1572 19.3776 29.155C20.0598 29.1529 20.7152 29.4207 21.2007 29.9001L26.6398 35.3392L40.7979 21.1813C41.2833 20.702 41.9387 20.4341 42.621 20.4363C43.3032 20.4385 43.9569 20.7104 44.4393 21.1929C44.9217 21.6753 45.1937 22.329 45.1958 23.0113C45.198 23.6935 44.9301 24.3489 44.4507 24.8343L28.4663 40.8187C28.2268 41.059 27.9421 41.2495 27.6287 41.3794C27.3152 41.5093 26.9792 41.5759 26.6399 41.5755Z" fill="#FCC13F"/>
<path d="M30.9994 5.16675C25.89 5.16675 20.8954 6.68185 16.6471 9.52045C12.3989 12.3591 9.08774 16.3937 7.13247 21.1141C5.17721 25.8345 4.66562 31.0287 5.66241 36.0399C6.65919 41.0511 9.11958 45.6542 12.7324 49.267C16.3453 52.8799 20.9484 55.3403 25.9595 56.337C30.9707 57.3338 36.1649 56.8222 40.8853 54.867C45.6058 52.9117 49.6404 49.6006 52.479 45.3523C55.3176 41.104 56.8327 36.1094 56.8327 31.0001C56.8249 24.1511 54.1006 17.5848 49.2576 12.7418C44.4146 7.89882 37.8484 5.17458 30.9994 5.16675ZM44.4508 24.8344L28.4664 40.8188C28.2266 41.0587 27.9418 41.249 27.6285 41.3789C27.3151 41.5088 26.9791 41.5756 26.6399 41.5756C26.3007 41.5756 25.9648 41.5088 25.6514 41.3789C25.338 41.249 25.0532 41.0587 24.8134 40.8188L17.5479 33.5531C17.0686 33.0677 16.8007 32.4123 16.8028 31.7301C16.8049 31.0478 17.0769 30.3941 17.5593 29.9117C18.0417 29.4293 18.6954 29.1573 19.3777 29.1551C20.0599 29.1529 20.7153 29.4208 21.2008 29.9002L26.6399 35.3393L40.7979 21.1814C41.2834 20.702 41.9388 20.4342 42.621 20.4364C43.3033 20.4385 43.957 20.7105 44.4394 21.1929C44.9218 21.6754 45.1938 22.3291 45.1959 23.0113C45.198 23.6936 44.9302 24.3489 44.4508 24.8344Z" fill="#FFF7E6"/>
</svg>
