<svg width="24" height="24" viewBox="0 0 24 24" fill="none" xmlns="http://www.w3.org/2000/svg">
<g clip-path="url(#clip0_2972_32956)">
<path d="M12 2C17.5228 2 22 6.47715 22 12C22 17.5228 17.5228 22 12 22C6.47715 22 2 17.5228 2 12C2 6.47715 6.47715 2 12 2ZM12.8828 6.07617C12.5091 5.92139 12.079 6.00697 11.793 6.29297L9.79297 8.29297C9.40244 8.68349 9.40244 9.31651 9.79297 9.70703C10.1835 10.0976 10.8165 10.0976 11.207 9.70703L11.5 9.41406V17C11.5 17.5523 11.9477 18 12.5 18C13.0523 18 13.5 17.5523 13.5 17V7C13.5 6.59558 13.2564 6.23098 12.8828 6.07617Z" fill="#FBB10E"/>
</g>
<defs>
<clipPath id="clip0_2972_32956">
<rect width="24" height="24" fill="white"/>
</clipPath>
</defs>
</svg>
