<svg xmlns="http://www.w3.org/2000/svg" width="348" height="36" fill="none" viewBox="0 0 348 36">
  <rect width="347" height="35" x=".5" y=".5" fill="#fff" rx="17.5"/>
  <rect width="347" height="35" x=".5" y=".5" stroke="#A3A3A3" rx="17.5"/>
  <path fill="#A3A3A3" d="m30.775 24.651-2.966-2.944a7.205 7.205 0 0 0-.811-9.869 7.193 7.193 0 0 0-9.89.271 7.204 7.204 0 0 0 4.498 12.27 7.192 7.192 0 0 0 5.092-1.56l2.942 2.944a.8.8 0 0 0 1.135 0 .8.8 0 0 0 0-1.112Zm-8.563-1.832a5.594 5.594 0 0 1-5.17-3.458 5.605 5.605 0 0 1 4.079-7.636 5.593 5.593 0 0 1 5.745 2.381 5.604 5.604 0 0 1-.696 7.072 5.595 5.595 0 0 1-3.958 1.64Zm23.186-9.339v1.067h-1.02v4.77c.481-.042.956-.083 1.407-.141l.059.937c-2.192.375-4.64.422-6.48.422l-.153-1.066 1.277-.012v-4.91H39.48V13.48h5.918Zm2.25-1.03v4.1h1.63v1.067h-1.63v5.426h-1.3V12.449h1.3Zm-5.894 6.984c.451-.006.908-.024 1.371-.047v-4.84h-1.371v4.887Zm16.582-1.43v1.031h-7.43v-5.754h7.336v1.055h-6.011v1.277h5.765v1.02H52.23v1.37h6.106Zm1.066 2.683v1.067h-9.68v-1.067h9.68Zm2.754.481-.984 3.281h-1.113l.609-3.281h1.488Zm7.653-6.809c0 1.301.843 2.52 2.496 3.024l-.621 1.02c-1.19-.37-2.034-1.126-2.496-2.087-.47 1.114-1.366 1.998-2.637 2.426l-.657-1.031c1.712-.563 2.602-1.934 2.602-3.34v-.129h-2.238v-1.055h5.754v1.055h-2.203v.117Zm4.558-1.91v2.543h1.477v1.067h-1.477v2.707h-1.3v-6.317h1.3ZM70.922 19c2.191 0 3.539.738 3.55 2.004-.011 1.277-1.359 2.027-3.55 2.027-2.215 0-3.586-.75-3.586-2.027 0-1.266 1.371-2.004 3.586-2.004Zm0 1.02c-1.453 0-2.285.34-2.285.984 0 .656.832 1.008 2.285 1.008 1.453 0 2.262-.352 2.262-1.008 0-.645-.809-.985-2.262-.985Zm15.14.703v1.066h-9.68v-1.066h9.68Zm-1.148-7.524v3.41h-6.082v1.383h6.328v1.031h-7.629v-3.457h6.094v-1.312h-6.117v-1.055h7.406Zm3.902 7.969-.984 3.281h-1.113l.61-3.281h1.487Zm7.852-5.707c0 1.734 1.02 3.562 2.73 4.277l-.714 1.032c-1.254-.54-2.168-1.653-2.649-3-.492 1.453-1.418 2.671-2.66 3.257l-.75-1.02c1.676-.773 2.719-2.741 2.719-4.546v-.89h-2.332v-1.079h5.976v1.078h-2.32v.89Zm4.816-3.012v10.594h-1.312V12.449h1.312Zm10.43 6.762v3.832h-1.301v-2.8h-5.918V19.21h7.219Zm0-6.762v6.258h-1.301v-1.406h-2.484c-.504.562-1.266.902-2.145.902-1.593 0-2.8-1.078-2.8-2.601 0-1.5 1.207-2.579 2.8-2.567.873-.006 1.635.322 2.133.88h2.496v-1.466h1.301Zm-5.93 1.688c-.914 0-1.558.586-1.558 1.465 0 .914.644 1.488 1.558 1.5.868-.012 1.524-.586 1.536-1.5-.012-.88-.668-1.465-1.536-1.465Zm2.696 2.11h1.933V14.98h-1.922a2.625 2.625 0 0 1-.011 1.266Zm13.066-3.153c-.012 2.73-1.805 4.64-4.887 5.508l-.527-1.02c2.373-.65 3.779-1.887 4.02-3.434h-3.446v-1.054h4.84Zm3.387-.633v5.965h-1.301v-2.309h-2.039v-1.066h2.039v-2.59h1.301Zm0 6.387v4.054h-6.973v-4.054h6.973Zm-5.695 1.03v1.993h4.406V19.88h-4.406Zm10.5-5.507c0 1.184.656 2.356 2.05 2.906l-.703.996c-.931-.375-1.582-1.066-1.957-1.921-.398.96-1.09 1.77-2.098 2.203l-.691-1.008c1.453-.645 2.133-1.98 2.145-3.176v-1.289h1.254v1.29Zm5.753-1.91v6.41h-1.242v-2.695h-1.054v2.637h-1.219v-6.176h1.219v2.46h1.054v-2.636h1.242Zm0 6.914v3.668h-1.3v-2.625h-5.953v-1.043h7.253Z"/>
</svg>
