<svg xmlns="http://www.w3.org/2000/svg" width="346" height="105" fill="none" viewBox="0 0 346 105">
  <g filter="url(#a)">
    <rect width="330" height="89" x="8" y="8" fill="#fff" rx="12"/>
    <path fill="url(#b)" d="M28.5 28a2.5 2.5 0 0 1 2.5 2.5v20a2.5 2.5 0 0 1-5 0v-20a2.5 2.5 0 0 1 2.5-2.5Zm12 0a2.5 2.5 0 0 1 2.5 2.5v20a2.5 2.5 0 0 1-5 0v-20a2.5 2.5 0 0 1 2.5-2.5Zm12 0a2.5 2.5 0 0 1 2.5 2.5v20a2.5 2.5 0 0 1-5 0v-20a2.5 2.5 0 0 1 2.5-2.5Zm12 0a2.5 2.5 0 0 1 2.5 2.5v20a2.5 2.5 0 0 1-5 0v-20a2.5 2.5 0 0 1 2.5-2.5Zm12 0a2.5 2.5 0 0 1 2.5 2.5v20a2.5 2.5 0 0 1-5 0v-20a2.5 2.5 0 0 1 2.5-2.5Zm12 0a2.5 2.5 0 0 1 2.5 2.5v20a2.5 2.5 0 0 1-5 0v-20a2.5 2.5 0 0 1 2.5-2.5Zm12 0a2.5 2.5 0 0 1 2.5 2.5v20a2.5 2.5 0 1 1-5 0v-20a2.5 2.5 0 0 1 2.5-2.5Zm12 0a2.5 2.5 0 0 1 2.5 2.5v20a2.5 2.5 0 1 1-5 0v-20a2.5 2.5 0 0 1 2.5-2.5Zm12 0a2.5 2.5 0 0 1 2.5 2.5v20a2.5 2.5 0 1 1-5 0v-20a2.5 2.5 0 0 1 2.5-2.5Zm12 0a2.5 2.5 0 0 1 2.5 2.5v20a2.5 2.5 0 1 1-5 0v-20a2.5 2.5 0 0 1 2.5-2.5Zm12 0a2.5 2.5 0 0 1 2.5 2.5v20a2.5 2.5 0 1 1-5 0v-20a2.5 2.5 0 0 1 2.5-2.5Zm12 0a2.5 2.5 0 0 1 2.5 2.5v20a2.5 2.5 0 1 1-5 0v-20a2.5 2.5 0 0 1 2.5-2.5Zm12 0a2.5 2.5 0 0 1 2.5 2.5v20a2.5 2.5 0 1 1-5 0v-20a2.5 2.5 0 0 1 2.5-2.5Zm12 0a2.5 2.5 0 0 1 2.5 2.5v20a2.5 2.5 0 1 1-5 0v-20a2.5 2.5 0 0 1 2.5-2.5Zm12 0a2.5 2.5 0 0 1 2.5 2.5v20a2.5 2.5 0 1 1-5 0v-20a2.5 2.5 0 0 1 2.5-2.5Zm12 0a2.5 2.5 0 0 1 2.5 2.5v20a2.5 2.5 0 1 1-5 0v-20a2.5 2.5 0 0 1 2.5-2.5Zm12 0a2.5 2.5 0 0 1 2.5 2.5v20a2.5 2.5 0 1 1-5 0v-20a2.5 2.5 0 0 1 2.5-2.5Z"/>
    <path stroke="#ECECEC" stroke-linecap="round" stroke-width="5" d="M232.5 30.5v20m12-20v20m12-20v20m12-20v20m12-20v20m12-20v20m12-20v20m12-20v20"/>
    <path fill="#737373" d="M33.773 67.012v8.906h-1.24v-5.147h-2.431v-1.015h2.431v-2.744h1.24Zm-5.8.947v4.824a19.97 19.97 0 0 0 3.496-.342l.136 1.016c-1.435.303-2.802.371-4.13.371h-.752V67.96h1.25Zm15.058 4.023v.996h-3.476v2.91h-1.23v-2.91h-3.428v-.996h8.134Zm-.976-4.54v3.583h-6.202v-3.584h6.202Zm-4.971.986v1.62h3.73v-1.62h-3.73Zm13.818-.899v.996h-1.767c.01 1.04.625 2.105 2.07 2.569l-.635.967c-.986-.318-1.665-.953-2.05-1.749-.396.87-1.104 1.558-2.14 1.895l-.663-.957c1.47-.474 2.139-1.611 2.158-2.725h-1.816v-.996h4.843Zm2.002-.517v2.158h1.201v1.035h-1.2v2.168h-1.25v-5.361h1.25Zm0 5.742v3.144h-1.25V73.74h-4.736v-.986h5.986Zm3.985-5.117c1.357 0 2.334 1.23 2.343 3.164-.01 1.953-.986 3.174-2.343 3.174-1.358 0-2.354-1.221-2.344-3.174-.01-1.934.986-3.164 2.344-3.164Zm0 1.123c-.684 0-1.143.722-1.143 2.04 0 1.329.46 2.042 1.143 2.042.693 0 1.142-.713 1.152-2.041-.01-1.319-.459-2.041-1.152-2.041Zm4.619-1.748v3.35h1.308v1.035h-1.308v4.501h-1.25v-8.886h1.25Zm9.765 6.826v1.025H63.14v-1.025h1.816V71.66c-.688-.41-1.103-1.04-1.103-1.826 0-1.436 1.406-2.393 3.34-2.393 1.923 0 3.34.957 3.349 2.393-.005.767-.41 1.392-1.074 1.807v2.197h1.806Zm-4.082-5.41c-1.27 0-2.109.508-2.109 1.406 0 .87.84 1.406 2.11 1.406 1.26 0 2.109-.537 2.119-1.406-.01-.898-.86-1.406-2.12-1.406Zm-1.005 5.41h2.021v-1.729c-.317.064-.66.098-1.016.098s-.693-.03-1.005-.098v1.729Z"/>
    <path fill="#FBB10E" d="M173.391 67.51v.986h-1.768c.01 1.05.635 2.124 2.041 2.588l-.615.957c-.987-.313-1.66-.957-2.041-1.758-.401.889-1.109 1.607-2.158 1.944l-.635-.987c1.46-.468 2.124-1.635 2.139-2.744h-1.788v-.986h4.825Zm2.363 5.185v3.203h-1.24v-2.207h-4.864v-.996h6.104Zm0-5.683v5.293h-1.24v-2.139h-1.377V69.15h1.377v-2.138h1.24Zm8.642 0v5.273h-1.24v-2.1h-1.386V69.18h1.386v-2.168h1.24Zm-3.037 5.469c1.895.01 3.057.634 3.067 1.718-.01 1.074-1.172 1.71-3.067 1.71-1.894 0-3.056-.636-3.056-1.71 0-1.084 1.162-1.709 3.056-1.718Zm0 .957c-1.181 0-1.816.244-1.816.761 0 .508.635.762 1.816.762 1.182 0 1.827-.254 1.827-.762 0-.517-.645-.761-1.827-.761Zm.674-5.89v.997h-1.767c.029 1.035.654 2.08 2.041 2.539l-.616.977c-.981-.318-1.655-.962-2.041-1.768-.395.908-1.103 1.64-2.158 2.002l-.644-.986c1.46-.489 2.114-1.65 2.148-2.764h-1.787v-.996h4.824Z"/>
    <path fill="#737373" d="M289.773 67.012v8.906h-1.24v-5.147h-2.431v-1.015h2.431v-2.744h1.24Zm-5.8.947v4.824a19.977 19.977 0 0 0 3.496-.342l.136 1.016c-1.435.303-2.802.371-4.13.371h-.752V67.96h1.25Zm15.058 4.023v.996h-3.476v2.91h-1.231v-2.91h-3.428v-.996h8.135Zm-.976-4.54v3.583h-6.201v-3.584h6.201Zm-4.971.986v1.62h3.73v-1.62h-3.73Zm13.33-.567c-.01 2.735-.742 5.03-3.945 6.69l-.684-.938c1.406-.742 2.28-1.567 2.793-2.549L302 71.3l-.166-1.055 3.135-.185a7.05 7.05 0 0 0 .205-1.202h-2.862v-.996h4.102Zm2.93-.85v8.887h-1.24v-4.453h-1.709V70.43h1.709v-3.418h1.24Zm9.287 6.827v1.025h-8.135v-1.025h1.816V71.66c-.688-.41-1.103-1.04-1.103-1.826 0-1.436 1.406-2.393 3.34-2.393 1.924 0 3.34.957 3.349 2.393-.004.767-.41 1.392-1.074 1.807v2.197h1.807Zm-4.082-5.41c-1.27 0-2.11.508-2.11 1.406 0 .87.84 1.406 2.11 1.406 1.26 0 2.109-.537 2.119-1.406-.01-.898-.859-1.406-2.119-1.406Zm-1.006 5.41h2.021v-1.729a5.187 5.187 0 0 1-1.015.098c-.357 0-.694-.03-1.006-.098v1.729Z"/>
  </g>
  <defs>
    <linearGradient id="b" x1="26" x2="223" y1="41" y2="41" gradientUnits="userSpaceOnUse">
      <stop stop-color="#FFF8E9"/>
      <stop offset=".3" stop-color="#FFE9B8"/>
      <stop offset=".7" stop-color="#FFD45B"/>
      <stop offset="1" stop-color="#FBB10E"/>
    </linearGradient>
    <filter id="a" width="346" height="105" x="0" y="0" color-interpolation-filters="sRGB" filterUnits="userSpaceOnUse">
      <feFlood flood-opacity="0" result="BackgroundImageFix"/>
      <feColorMatrix in="SourceAlpha" result="hardAlpha" values="0 0 0 0 0 0 0 0 0 0 0 0 0 0 0 0 0 0 127 0"/>
      <feOffset/>
      <feGaussianBlur stdDeviation="4"/>
      <feComposite in2="hardAlpha" operator="out"/>
      <feColorMatrix values="0 0 0 0 0 0 0 0 0 0 0 0 0 0 0 0 0 0 0.1 0"/>
      <feBlend in2="BackgroundImageFix" result="effect1_dropShadow_4753_43965"/>
      <feBlend in="SourceGraphic" in2="effect1_dropShadow_4753_43965" result="shape"/>
    </filter>
  </defs>
</svg>
