<svg xmlns="http://www.w3.org/2000/svg" width="330" height="68" fill="none" viewBox="0 0 330 68">
  <rect width="330" height="68" fill="#FFFAF0" rx="12"/>
  <g clip-path="url(#a)">
    <circle cx="30" cy="34" r="9" fill="#737373" fill-opacity=".2"/>
    <circle cx="30" cy="34" r="9" stroke="#2E2E2E" stroke-linecap="round" stroke-linejoin="round" stroke-width="2"/>
    <path stroke="#2E2E2E" stroke-linejoin="round" stroke-width="2" d="m32 34-3 1.732v-3.464L32 34Z"/>
  </g>
  <path fill="#FBB10E" d="M53.3 38.098c-1.767 0-2.841-1.319-2.841-3.633 0-2.315 1.074-3.633 2.842-3.633 1.767 0 2.842 1.328 2.842 3.633 0 2.324-1.075 3.633-2.842 3.633Zm0-1.211c.821 0 1.348-.791 1.339-2.422 0-1.612-.518-2.432-1.338-2.432-.82 0-1.338.82-1.338 2.432-.01 1.63.517 2.422 1.338 2.422Zm4.718.254a.813.813 0 0 1-.82-.82.805.805 0 0 1 .82-.811c.43 0 .81.361.81.81 0 .45-.38.82-.81.82Zm0-3.721a.813.813 0 0 1-.82-.82.805.805 0 0 1 .82-.81c.43 0 .81.36.81.81 0 .449-.38.82-.81.82Zm4.707 4.678c-1.768 0-2.842-1.319-2.842-3.633 0-2.315 1.074-3.633 2.842-3.633 1.767 0 2.841 1.328 2.841 3.633 0 2.324-1.074 3.633-2.841 3.633Zm0-1.211c.82 0 1.347-.791 1.337-2.422 0-1.612-.517-2.432-1.337-2.432s-1.338.82-1.338 2.432c-.01 1.63.517 2.422 1.338 2.422Zm6.601 1.21c-1.767 0-2.842-1.318-2.842-3.632 0-2.315 1.075-3.633 2.842-3.633 1.768 0 2.842 1.328 2.842 3.633 0 2.324-1.074 3.633-2.842 3.633Zm0-1.21c.82 0 1.348-.791 1.338-2.422 0-1.612-.517-2.432-1.338-2.432-.82 0-1.338.82-1.338 2.432-.01 1.63.518 2.422 1.338 2.422Zm9.229-6.29-2.286 8.468h-1.24l2.276-8.467h1.25Zm5.693 7.5c-1.767 0-2.842-1.318-2.842-3.632 0-2.315 1.075-3.633 2.842-3.633 1.768 0 2.842 1.328 2.842 3.633 0 2.324-1.074 3.633-2.842 3.633Zm0-1.21c.82 0 1.348-.791 1.338-2.422 0-1.612-.518-2.432-1.338-2.432-.82 0-1.338.82-1.338 2.432-.01 1.63.518 2.422 1.338 2.422Zm4.717.254a.813.813 0 0 1-.82-.82.805.805 0 0 1 .82-.811c.43 0 .81.361.81.81 0 .45-.38.82-.81.82Zm0-3.721a.813.813 0 0 1-.82-.82.805.805 0 0 1 .82-.81c.43 0 .81.36.81.81 0 .449-.38.82-.81.82Zm4.707 4.678c-1.768 0-2.842-1.319-2.842-3.633 0-2.315 1.074-3.633 2.842-3.633 1.767 0 2.842 1.328 2.842 3.633 0 2.324-1.075 3.633-2.842 3.633Zm0-1.211c.82 0 1.347-.791 1.338-2.422 0-1.612-.518-2.432-1.338-2.432-.82 0-1.338.82-1.338 2.432-.01 1.63.518 2.422 1.338 2.422Zm6.455 1.21c-1.475 0-2.549-.869-2.578-2.09h1.426c.029.558.537.928 1.152.928.732 0 1.25-.517 1.25-1.25 0-.751-.527-1.269-1.27-1.279-.527 0-.898.196-1.113.596h-1.328l.38-4.072h4.356v1.2h-3.144l-.195 1.788h.058c.264-.352.791-.596 1.416-.596 1.299 0 2.266.967 2.266 2.325 0 1.425-1.084 2.45-2.676 2.45Z"/>
  <rect width="200" height="4" x="112" y="32" fill="#D4D4D4" rx="2"/>
  <rect width="94" height="4" x="112" y="32" fill="#FBB10E" rx="2"/>
  <defs>
    <clipPath id="a">
      <path fill="#fff" d="M18 22h24v24H18z"/>
    </clipPath>
  </defs>
</svg>
