<svg xmlns="http://www.w3.org/2000/svg" width="32" height="32" fill="none" viewBox="0 0 32 32">
  <g clip-path="url(#a)">
    <path fill="#fff" d="M19.225 8.414 5.613 12.952a2.75 2.75 0 0 0-.117 5.172l5.037 1.925a.97.97 0 0 1 .531.532l1.925 5.036a2.75 2.75 0 0 0 4.512.96c.3-.307.528-.677.667-1.083l4.538-13.612a2.75 2.75 0 0 0-3.475-3.474l-.006.006Zm1.737 2.891-4.537 13.612a.918.918 0 0 1-1.718.032l-1.932-5.03a1.827 1.827 0 0 0-.09-.194l4.466-4.466a.916.916 0 1 0-1.297-1.296l-4.466 4.466a1.835 1.835 0 0 0-.194-.091l-5.03-1.932a.916.916 0 0 1 .032-1.717l13.612-4.537a.916.916 0 0 1 1.154 1.153Z"/>
  </g>
  <defs>
    <clipPath id="a">
      <path fill="#fff" d="M0 15.556 15.556 0l15.557 15.556-15.557 15.557z"/>
    </clipPath>
  </defs>
</svg>
