<svg width="9" height="5" viewBox="0 0 9 5" fill="none" xmlns="http://www.w3.org/2000/svg">
<path d="M7.79153 0.217957C7.94337 0.356311 8.02878 0.544645 8.02878 0.741115C8.02878 0.937584 7.94337 1.12592 7.79153 1.26427L4.5832 4.21164C4.43259 4.35113 4.22758 4.4296 4.01372 4.4296C3.79985 4.4296 3.59484 4.35113 3.44424 4.21164L0.235904 1.26427C0.032449 1.07737 -0.0470093 0.804944 0.0274605 0.549625C0.10193 0.294307 0.319015 0.09488 0.59694 0.0264676C0.874865 -0.0419449 1.17141 0.0310503 1.37486 0.217957L4.01372 2.62743L6.65257 0.217957C6.80318 0.0784631 7.00818 0 7.22205 0C7.43592 0 7.64093 0.0784631 7.79153 0.217957Z" fill="#FFFDFB"/>
</svg>
