<svg xmlns="http://www.w3.org/2000/svg" width="35" height="35" fill="none" viewBox="0 0 35 35">
  <rect width="33.5" height="33.5" x=".75" y=".75" stroke="#FDD272" stroke-width="1.5" rx="7.25"/>
  <path fill="#FDD272" d="M18.3 17.72A4.92 4.92 0 0 0 20 14a5 5 0 1 0-10 0 4.92 4.92 0 0 0 1.7 3.72A8 8 0 0 0 7 25a1 1 0 1 0 2 0 6 6 0 1 1 12 0 1 1 0 0 0 2 0 8 8 0 0 0-4.7-7.28ZM15 17a3 3 0 1 1 0-5.999A3 3 0 0 1 15 17Zm9.74.32A5 5 0 0 0 21 9a1 1 0 1 0 0 2 3 3 0 0 1 3 3 3 3 0 0 1-1.5 2.59 1 1 0 0 0-.05 1.7l.39.26.13.07a7 7 0 0 1 4 6.38 1 1 0 0 0 2 0 9 9 0 0 0-4.23-7.68Z"/>
</svg>
