<svg width="24" height="24" viewBox="0 0 24 24" fill="none" xmlns="http://www.w3.org/2000/svg">
<path d="M12 1.99996C13.3001 1.99996 14.5444 2.24893 15.6865 2.70211C16.1999 2.90581 16.4507 3.48663 16.2471 3.99996C16.0434 4.51331 15.4626 4.76421 14.9492 4.56051C14.038 4.19892 13.0434 3.99996 12 3.99996C7.58173 3.99996 4.00002 7.5817 4 12C4 16.4182 7.58172 20 12 20C15.6887 20 18.7969 17.5025 19.7207 14.1045C19.8656 13.5716 20.4153 13.2574 20.9482 13.4023C21.4808 13.5474 21.795 14.0962 21.6504 14.6289C20.4959 18.8755 16.6141 22 12 22C6.47715 22 2 17.5228 2 12C2.00002 6.47713 6.47716 1.99996 12 1.99996ZM12 8.99996C13.6568 8.99996 15 10.3431 15 12C15 13.6568 13.6569 15 12 15C10.3431 15 9 13.6568 9 12C9.00002 10.3431 10.3432 8.99996 12 8.99996ZM12 11C11.4477 11 11 11.4477 11 12C11 12.5522 11.4477 13 12 13C12.5523 13 13 12.5522 13 12C13 11.4477 12.5523 11 12 11ZM19.6172 1.07614C19.9909 0.921364 20.421 1.00695 20.707 1.29293L22.707 3.29293C23.0976 3.68345 23.0975 4.31647 22.707 4.707C22.3165 5.09752 21.6835 5.09752 21.293 4.707L21 4.41403V8.99996C21 10.6568 19.6569 12 18 12C16.3431 12 15 10.6568 15 8.99996C15 7.34312 16.3432 5.99996 18 5.99996C18.351 5.99996 18.6869 6.06302 19 6.17379V1.99996C19 1.59556 19.2436 1.23094 19.6172 1.07614Z" fill="#FBB10E"/>
</svg>
