<svg width="100" height="100" viewBox="0 0 100 100" fill="none" xmlns="http://www.w3.org/2000/svg">
<path fill-rule="evenodd" clip-rule="evenodd" d="M0 50C0 22.3858 22.3858 0 50 0C63.2608 0 75.9785 5.26784 85.3553 14.6447C94.7322 24.0215 100 36.7392 100 50C100 77.6142 77.6142 100 50 100C22.3858 100 0 77.6142 0 50ZM43.55 68.55L73.55 38.55C75.5106 36.5894 75.5106 33.4106 73.55 31.45C71.5894 29.4894 68.4106 29.4894 66.45 31.45L40 57.95L33.55 51.45C32.2817 50.1817 30.4331 49.6864 28.7006 50.1506C26.9681 50.6148 25.6148 51.9681 25.1506 53.7006C24.6864 55.4331 25.1817 57.2817 26.45 58.55L36.45 68.55C37.3888 69.4966 38.6668 70.029 40 70.029C41.3332 70.029 42.6112 69.4966 43.55 68.55Z" fill="#F04579"/>
</svg>
