<svg width="14" height="14" viewBox="0 0 14 14" fill="none" xmlns="http://www.w3.org/2000/svg">
<path d="M7.00033 4.08366C6.84562 4.08366 6.69725 4.14512 6.58785 4.25451C6.47845 4.36391 6.41699 4.51228 6.41699 4.66699V7.00033C6.41699 7.15504 6.47845 7.30341 6.58785 7.4128C6.69725 7.5222 6.84562 7.58366 7.00033 7.58366C7.15504 7.58366 7.30341 7.5222 7.41281 7.4128C7.5222 7.30341 7.58366 7.15504 7.58366 7.00033V4.66699C7.58366 4.51228 7.5222 4.36391 7.41281 4.25451C7.30341 4.14512 7.15504 4.08366 7.00033 4.08366ZM7.53699 9.11199C7.52423 9.07482 7.50657 9.03951 7.48449 9.00699L7.41449 8.91949C7.33246 8.83855 7.2283 8.78372 7.11514 8.76192C7.00198 8.74012 6.88489 8.75232 6.77866 8.79699C6.70797 8.82653 6.64286 8.86797 6.58616 8.91949C6.5321 8.974 6.48932 9.03864 6.4603 9.10971C6.43127 9.18079 6.41655 9.25689 6.41699 9.33366C6.41792 9.40989 6.43377 9.4852 6.46366 9.55532C6.48986 9.62771 6.53166 9.69346 6.58609 9.74789C6.64053 9.80233 6.70627 9.84413 6.77866 9.87033C6.84849 9.90119 6.92399 9.91713 7.00033 9.91713C7.07667 9.91713 7.15217 9.90119 7.22199 9.87033C7.29438 9.84413 7.36013 9.80233 7.41456 9.74789C7.469 9.69346 7.5108 9.62771 7.53699 9.55532C7.56689 9.4852 7.58274 9.40989 7.58366 9.33366C7.58652 9.29482 7.58652 9.25583 7.58366 9.21699C7.57362 9.17979 7.55788 9.14437 7.53699 9.11199ZM7.00033 1.16699C5.8466 1.16699 4.71879 1.50911 3.7595 2.15009C2.80021 2.79106 2.05254 3.7021 1.61103 4.76801C1.16952 5.83391 1.054 7.0068 1.27908 8.13835C1.50416 9.26991 2.05973 10.3093 2.87554 11.1251C3.69134 11.9409 4.73075 12.4965 5.8623 12.7216C6.99386 12.9467 8.16675 12.8311 9.23265 12.3896C10.2986 11.9481 11.2096 11.2004 11.8506 10.2412C12.4915 9.28187 12.8337 8.15405 12.8337 7.00033C12.8337 6.23428 12.6828 5.47574 12.3896 4.76801C12.0965 4.06027 11.6668 3.41721 11.1251 2.87554C10.5834 2.33386 9.94038 1.90418 9.23265 1.61103C8.52492 1.31788 7.76637 1.16699 7.00033 1.16699ZM7.00033 11.667C6.07735 11.667 5.1751 11.3933 4.40767 10.8805C3.64024 10.3677 3.0421 9.6389 2.68889 8.78618C2.33568 7.93346 2.24327 6.99515 2.42333 6.0899C2.60339 5.18466 3.04785 4.35314 3.7005 3.70049C4.35314 3.04785 5.18466 2.60339 6.08991 2.42333C6.99515 2.24326 7.93346 2.33568 8.78618 2.68889C9.63891 3.0421 10.3677 3.64023 10.8805 4.40766C11.3933 5.17509 11.667 6.07735 11.667 7.00033C11.667 8.238 11.1753 9.42499 10.3002 10.3002C9.42499 11.1753 8.23801 11.667 7.00033 11.667Z" fill="#C62828"/>
</svg>
