<svg width="24" height="24" viewBox="0 0 24 24" fill="none" xmlns="http://www.w3.org/2000/svg">
<g clip-path="url(#clip0_2605_22602)">
<path d="M21 21L16.6569 16.6569M16.6569 16.6569C18.1046 15.2091 19 13.2091 19 11C19 6.58172 15.4183 3 11 3C6.58172 3 3 6.58172 3 11C3 15.4183 6.58172 19 11 19C13.2091 19 15.2091 18.1046 16.6569 16.6569Z" stroke="#1D1A1A" stroke-width="2" stroke-linecap="round" stroke-linejoin="round"/>
</g>
<path d="M11.6172 5.07614C11.9909 4.92136 12.421 5.00694 12.707 5.29294L14.707 7.29294C15.0975 7.68347 15.0976 8.31648 14.707 8.707C14.3165 9.09751 13.6835 9.09751 13.293 8.707L13 8.41403V13L12.9961 13.1543C12.9158 14.7394 11.6051 16 10 16C8.34316 16 7.00002 14.6568 7 13C7 11.3431 8.34315 9.99997 10 9.99997C10.351 9.99997 10.6869 10.063 11 10.1738V5.99997C11 5.59556 11.2436 5.23096 11.6172 5.07614ZM10 12C9.44772 12 9 12.4477 9 13C9.00002 13.5522 9.44772 14 10 14C10.5523 14 11 13.5522 11 13C11 12.4477 10.5523 12 10 12Z" fill="#1D1A1A"/>
<defs>
<clipPath id="clip0_2605_22602">
<rect width="24" height="24" fill="white"/>
</clipPath>
</defs>
</svg>
