<svg width="24" height="24" viewBox="0 0 24 24" fill="none" xmlns="http://www.w3.org/2000/svg">
<g clip-path="url(#clip0_2605_22617)">
<path d="M21 21L16.6569 16.6569M16.6569 16.6569C18.1046 15.2091 19 13.2091 19 11C19 6.58172 15.4183 3 11 3C6.58172 3 3 6.58172 3 11C3 15.4183 6.58172 19 11 19C13.2091 19 15.2091 18.1046 16.6569 16.6569Z" stroke="#F04579" stroke-width="2" stroke-linecap="round" stroke-linejoin="round"/>
</g>
<path d="M11.6172 5.07614C11.9909 4.92136 12.421 5.00694 12.707 5.29294L14.707 7.29294C15.0976 7.68346 15.0976 8.31648 14.707 8.707C14.3165 9.09753 13.6835 9.09753 13.293 8.707L13 8.41403V13C13 14.6568 11.6569 16 10 16C8.34315 16 7 14.6568 7 13C7 11.3431 8.34315 9.99997 10 9.99997C10.351 9.99997 10.6869 10.063 11 10.1738V5.99997C11 5.59556 11.2436 5.23095 11.6172 5.07614Z" fill="#F04579"/>
<defs>
<clipPath id="clip0_2605_22617">
<rect width="24" height="24" fill="white"/>
</clipPath>
</defs>
</svg>
