<svg width="52" height="52" viewBox="0 0 52 52" fill="none" xmlns="http://www.w3.org/2000/svg">
<path d="M26 0C21.0793 0.000404935 16.2597 1.39707 12.1012 4.02773C7.94269 6.65839 4.61601 10.415 2.50767 14.8612C0.399329 19.3074 -0.404122 24.2605 0.19067 29.1451C0.785462 34.0298 2.75408 38.6454 5.86779 42.4557L0.761807 47.5618C0.398189 47.9254 0.150551 48.3886 0.0502104 48.8929C-0.0501297 49.3972 0.00133476 49.92 0.198096 50.395C0.394857 50.8701 0.728077 51.2762 1.15562 51.5618C1.58315 51.8475 2.08581 52 2.60001 52H26C32.8956 52 39.5088 49.2607 44.3848 44.3848C49.2607 39.5088 52 32.8956 52 26C52 19.1044 49.2607 12.4912 44.3848 7.61522C39.5088 2.73928 32.8956 0 26 0ZM15.6 28.6C15.0858 28.6 14.5831 28.4475 14.1555 28.1618C13.728 27.8761 13.3947 27.4701 13.1979 26.995C13.0011 26.5199 12.9496 25.9971 13.05 25.4928C13.1503 24.9884 13.3979 24.5251 13.7615 24.1615C14.1251 23.7979 14.5884 23.5503 15.0928 23.45C15.5971 23.3496 16.1199 23.4011 16.595 23.5979C17.0701 23.7947 17.4761 24.1279 17.7618 24.5555C18.0475 24.9831 18.2 25.4858 18.2 26C18.2 26.6896 17.9261 27.3509 17.4385 27.8385C16.9509 28.3261 16.2896 28.6 15.6 28.6ZM26 28.6C25.4858 28.6 24.9831 28.4475 24.5555 28.1618C24.128 27.8761 23.7947 27.4701 23.5979 26.995C23.4011 26.5199 23.3496 25.9971 23.45 25.4928C23.5503 24.9884 23.7979 24.5251 24.1615 24.1615C24.5251 23.7979 24.9884 23.5503 25.4928 23.45C25.9971 23.3496 26.5199 23.4011 26.995 23.5979C27.4701 23.7947 27.8761 24.1279 28.1618 24.5555C28.4475 24.9831 28.6 25.4858 28.6 26C28.6 26.6896 28.3261 27.3509 27.8385 27.8385C27.3509 28.3261 26.6896 28.6 26 28.6ZM36.4 28.6C35.8858 28.6 35.3831 28.4475 34.9555 28.1618C34.528 27.8761 34.1947 27.4701 33.9979 26.995C33.8011 26.5199 33.7496 25.9971 33.85 25.4928C33.9503 24.9884 34.1979 24.5251 34.5615 24.1615C34.9251 23.7979 35.3884 23.5503 35.8928 23.45C36.3971 23.3496 36.9199 23.4011 37.395 23.5979C37.8701 23.7947 38.2761 24.1279 38.5618 24.5555C38.8475 24.9831 39 25.4858 39 26C39 26.6896 38.7261 27.3509 38.2385 27.8385C37.7509 28.3261 37.0896 28.6 36.4 28.6Z" fill="#D4D4D4"/>
</svg>
