<svg xmlns="http://www.w3.org/2000/svg" width="42" height="42" fill="none" viewBox="0 0 42 42">
  <path fill="#FBB10E" d="M21 26.25c2.122 0 4.157-.738 5.657-2.05 1.5-1.313 2.343-3.093 2.343-4.95V8.75c0-1.857-.843-3.637-2.343-4.95-1.5-1.313-3.535-2.05-5.657-2.05s-4.157.737-5.657 2.05C13.843 5.113 13 6.893 13 8.75v10.5c0 1.857.843 3.637 2.343 4.95 1.5 1.313 3.535 2.05 5.657 2.05Zm16-7c0-.464-.21-.91-.586-1.237A2.154 2.154 0 0 0 35 17.5c-.53 0-1.04.184-1.414.513A1.647 1.647 0 0 0 33 19.25c0 2.785-1.264 5.456-3.515 7.425-2.25 1.969-5.302 3.075-8.485 3.075s-6.235-1.106-8.485-3.075C10.265 24.705 9 22.035 9 19.25c0-.464-.21-.91-.586-1.237A2.154 2.154 0 0 0 7 17.5c-.53 0-1.04.184-1.414.513A1.647 1.647 0 0 0 5 19.25c.004 3.408 1.427 6.697 4.005 9.252 2.577 2.555 6.131 4.2 9.995 4.625v3.623h-4c-.53 0-1.04.184-1.414.513A1.647 1.647 0 0 0 13 38.5c0 .464.21.91.586 1.237A2.15 2.15 0 0 0 15 40.25h12c.53 0 1.04-.184 1.414-.513.375-.328.586-.773.586-1.237 0-.464-.21-.91-.586-1.237A2.154 2.154 0 0 0 27 36.75h-4v-3.623c3.864-.425 7.418-2.07 9.995-4.625 2.578-2.555 4.002-5.844 4.005-9.252Z"/>
</svg>
