<svg width="16" height="16" viewBox="0 0 16 16" fill="none" xmlns="http://www.w3.org/2000/svg">
<path d="M8.9426 8.00022L11.1379 5.80488C11.2616 5.6796 11.3308 5.51047 11.3302 5.3344C11.3296 5.15834 11.2595 4.98965 11.135 4.86515C11.0105 4.74066 10.8418 4.67048 10.6657 4.66993C10.4896 4.66937 10.3205 4.7385 10.1952 4.86222L7.99989 7.05751L5.80456 4.86222C5.67916 4.73908 5.51022 4.67044 5.33447 4.67123C5.15873 4.67203 4.99041 4.74219 4.86614 4.86647C4.74187 4.99074 4.6717 5.15906 4.67091 5.3348C4.67011 5.51054 4.73875 5.67949 4.86189 5.80488L7.05718 8.00022L4.86189 10.1955C4.73875 10.3209 4.67011 10.4899 4.67091 10.6656C4.6717 10.8414 4.74187 11.0097 4.86614 11.134C4.99041 11.2582 5.15873 11.3284 5.33447 11.3292C5.51022 11.33 5.67916 11.2614 5.80456 11.1382L7.99989 8.94292L10.1952 11.1383C10.3205 11.262 10.4896 11.3311 10.6657 11.3305C10.8418 11.33 11.0105 11.2598 11.135 11.1353C11.2594 11.0108 11.3296 10.8421 11.3302 10.666C11.3307 10.49 11.2616 10.3208 11.1379 10.1955L8.9426 8.00022Z" fill="#F5F5F5"/>
<path d="M12.7138 3.28604C11.4636 2.03585 9.76795 1.3335 7.99991 1.3335C6.23187 1.3335 4.53624 2.03585 3.28604 3.28604C2.03585 4.53624 1.3335 6.23187 1.3335 7.99991C1.3335 9.76795 2.03585 11.4636 3.28604 12.7138C4.53624 13.964 6.23187 14.6663 7.99991 14.6663C9.76795 14.6663 11.4636 13.964 12.7138 12.7138C13.964 11.4636 14.6663 9.76795 14.6663 7.99991C14.6663 6.23187 13.964 4.53624 12.7138 3.28604ZM11.1379 10.1952C11.2007 10.2569 11.2507 10.3305 11.285 10.4116C11.3192 10.4927 11.337 10.5798 11.3374 10.6678C11.3378 10.7559 11.3208 10.8431 11.2873 10.9245C11.2538 11.006 11.2045 11.0799 11.1422 11.1422C11.0799 11.2045 11.006 11.2538 10.9245 11.2873C10.8431 11.3208 10.7559 11.3378 10.6678 11.3374C10.5798 11.337 10.4927 11.3192 10.4116 11.285C10.3305 11.2507 10.2569 11.2007 10.1952 11.1379L7.99991 8.94262L5.80458 11.1379C5.67919 11.2611 5.51024 11.3297 5.33449 11.3289C5.15875 11.3281 4.99043 11.2579 4.86616 11.1337C4.74189 11.0094 4.67172 10.8411 4.67093 10.6653C4.67013 10.4896 4.73877 10.3206 4.86191 10.1952L7.0572 7.99991L4.86191 5.80458C4.73877 5.67919 4.67013 5.51024 4.67093 5.33449C4.67172 5.15875 4.74189 4.99043 4.86616 4.86616C4.99043 4.74189 5.15875 4.67172 5.33449 4.67093C5.51024 4.67013 5.67919 4.73877 5.80458 4.86191L7.99991 7.0572L10.1952 4.86187C10.3205 4.73816 10.4897 4.66904 10.6657 4.6696C10.8418 4.67016 11.0105 4.74035 11.135 4.86485C11.2595 4.98935 11.3297 5.15804 11.3302 5.33411C11.3308 5.51017 11.2616 5.6793 11.1379 5.80458L8.94262 7.99991L11.1379 10.1952Z" fill="#D4D4D4"/>
</svg>
