<svg width="24" height="24" viewBox="0 0 24 24" fill="none" xmlns="http://www.w3.org/2000/svg">
<path d="M4.93045 4.92894C5.11796 4.7413 5.37233 4.63584 5.6376 4.63574C5.90287 4.63565 6.15731 4.74094 6.34495 4.92844C6.53259 5.11595 6.63806 5.37032 6.63816 5.63559C6.63825 5.90086 6.53296 6.1553 6.34545 6.34294C4.84538 7.84321 4.00266 9.87789 4.00266 11.9994C4.00266 14.121 4.84538 16.1557 6.34545 17.6559C6.53309 17.8435 6.63856 18.0978 6.63866 18.3631C6.63875 18.6284 6.53346 18.8828 6.34595 19.0704C6.15844 19.2581 5.90408 19.3636 5.63881 19.3636C5.37354 19.3637 5.11909 19.2585 4.93145 19.0709C1.02545 15.1659 1.02545 8.83394 4.93145 4.92894M17.6595 4.92894C17.847 4.74147 18.1013 4.63616 18.3665 4.63616C18.6316 4.63616 18.8859 4.74147 19.0735 4.92894C22.9795 8.83394 22.9795 15.1659 19.0735 19.0709C18.8858 19.2585 18.6314 19.3637 18.3661 19.3636C18.1008 19.3636 17.8465 19.2581 17.659 19.0704C17.4714 18.8828 17.3662 18.6284 17.3663 18.3631C17.3663 18.0978 17.4718 17.8435 17.6595 17.6559C19.1595 16.1557 20.0022 14.121 20.0022 11.9994C20.0022 9.87789 19.1595 7.84321 17.6595 6.34294C17.472 6.15542 17.3667 5.90111 17.3667 5.63594C17.3667 5.37078 17.472 5.11647 17.6595 4.92894ZM7.75945 7.75694C7.94793 7.57465 8.20046 7.47367 8.46266 7.47576C8.72486 7.47785 8.97575 7.58285 9.16129 7.76812C9.34683 7.9534 9.45218 8.20414 9.45464 8.46634C9.4571 8.72854 9.35648 8.98121 9.17445 9.16994C8.803 9.54138 8.50834 9.98235 8.30731 10.4677C8.10628 10.953 8.00281 11.4731 8.00281 11.9984C8.00281 12.5237 8.10628 13.0439 8.30731 13.5292C8.50834 14.0145 8.803 14.4555 9.17445 14.8269C9.35661 15.0155 9.45741 15.2681 9.45513 15.5303C9.45285 15.7925 9.34768 16.0434 9.16227 16.2288C8.97686 16.4142 8.72605 16.5193 8.46385 16.5216C8.20166 16.5239 7.94906 16.4231 7.76045 16.2409C6.63532 15.1157 6.00323 13.5897 6.00323 11.9984C6.00323 10.4072 6.63532 8.88115 7.76045 7.75594M14.8315 7.75594C15.019 7.56847 15.2733 7.46316 15.5385 7.46316C15.8036 7.46316 16.0579 7.56847 16.2455 7.75594C17.3706 8.88115 18.0027 10.4072 18.0027 11.9984C18.0027 13.5897 17.3706 15.1157 16.2455 16.2409C16.0569 16.4231 15.8042 16.5239 15.5421 16.5216C15.2799 16.5193 15.029 16.4142 14.8436 16.2288C14.6582 16.0434 14.5531 15.7925 14.5508 15.5303C14.5485 15.2681 14.6493 15.0155 14.8315 14.8269C15.2029 14.4555 15.4976 14.0145 15.6986 13.5292C15.8996 13.0439 16.0031 12.5237 16.0031 11.9984C16.0031 11.4731 15.8996 10.953 15.6986 10.4677C15.4976 9.98235 15.2029 9.54138 14.8315 9.16994C14.644 8.98242 14.5387 8.72811 14.5387 8.46294C14.5387 8.19778 14.644 7.94347 14.8315 7.75594ZM12.0005 10.4999C12.3983 10.4999 12.7798 10.658 13.0611 10.9393C13.3424 11.2206 13.5005 11.6021 13.5005 11.9999C13.5005 12.3978 13.3424 12.7793 13.0611 13.0606C12.7798 13.3419 12.3983 13.4999 12.0005 13.4999C11.6026 13.4999 11.2211 13.3419 10.9398 13.0606C10.6585 12.7793 10.5005 12.3978 10.5005 11.9999C10.5005 11.6021 10.6585 11.2206 10.9398 10.9393C11.2211 10.658 11.6026 10.4999 12.0005 10.4999Z" fill="currentColor"/>
</svg>
