<svg width="24" height="28" viewBox="0 0 24 28" fill="none" xmlns="http://www.w3.org/2000/svg">
<path d="M3.51733 23.9006C4.59467 24.978 5.86133 25.8335 7.31733 26.4673C8.77155 27.0993 10.3324 27.4157 12 27.4166C13.6676 27.4175 15.2289 27.1011 16.684 26.4673C18.1391 25.8335 19.4058 24.978 20.484 23.9006C21.5622 22.8233 22.4178 21.5566 23.0507 20.1006C23.6836 18.6446 24 17.0833 24 15.4166C24.0018 15.0406 23.8742 14.7242 23.6173 14.4673C23.3604 14.2104 23.0436 14.0824 22.6667 14.0833C22.2898 14.0842 21.9733 14.2122 21.7173 14.4673C21.4613 14.7224 21.3333 15.0388 21.3333 15.4166C21.336 18.0193 20.4307 20.2251 18.6173 22.034C16.804 23.8428 14.5982 24.7482 12 24.75C9.40178 24.7517 7.19644 23.8464 5.384 22.034C3.57156 20.2215 2.66578 18.0157 2.66667 15.4166C2.66756 12.8175 3.57333 10.6122 5.384 8.80062C7.19467 6.98906 9.4 6.08328 12 6.08328H12.2L11.0667 7.21662C10.7991 7.48328 10.6711 7.7944 10.6827 8.14995C10.6942 8.50551 10.8222 8.81662 11.0667 9.08328C11.3342 9.35084 11.6511 9.48995 12.0173 9.50062C12.3836 9.51128 12.7 9.38328 12.9667 9.11662L16.4 5.68328C16.6667 5.41662 16.8 5.10551 16.8 4.74995C16.8 4.3944 16.6667 4.08328 16.4 3.81662L12.9667 0.383284C12.7009 0.117506 12.3844 -0.0100493 12.0173 0.000617363C11.6502 0.011284 11.3333 0.149951 11.0667 0.416617C10.8213 0.683284 10.6933 0.994395 10.6827 1.34995C10.672 1.70551 10.8 2.01662 11.0667 2.28328L12.2 3.41662H12C10.3342 3.41751 8.77289 3.7344 7.316 4.36728C5.85911 5.00017 4.59244 5.85573 3.516 6.93395C2.43956 8.01217 1.58444 9.27884 0.950667 10.734C0.316889 12.1891 0 13.75 0 15.4166C0 17.0833 0.316889 18.6446 0.950667 20.1006C1.58444 21.5566 2.44 22.8233 3.51733 23.9006Z" fill="#2E2E2E"/>
</svg>
