<svg width="24" height="28" viewBox="0 0 24 28" fill="none" xmlns="http://www.w3.org/2000/svg">
<path d="M7.31733 26.4686C5.86133 25.8348 4.59467 24.9793 3.51733 23.9019C2.44 22.8246 1.58444 21.5579 0.950667 20.1019C0.316889 18.6459 0 17.0846 0 15.4179C0 15.0402 0.128 14.7237 0.384 14.4686C0.64 14.2135 0.956444 14.0855 1.33333 14.0846C1.71022 14.0837 2.02711 14.2117 2.284 14.4686C2.54089 14.7255 2.66844 15.0419 2.66667 15.4179C2.66667 18.0179 3.57244 20.2237 5.384 22.0353C7.19556 23.8468 9.40089 24.7522 12 24.7513C14.5991 24.7504 16.8049 23.8451 18.6173 22.0353C20.4298 20.2255 21.3351 18.0197 21.3333 15.4179C21.3316 12.8162 20.4262 10.6108 18.6173 8.80195C16.8084 6.99306 14.6027 6.08728 12 6.08461H11.8L12.9333 7.21795C13.2 7.48461 13.328 7.79573 13.3173 8.15128C13.3067 8.50684 13.1787 8.81795 12.9333 9.08461C12.6667 9.35128 12.3502 9.49039 11.984 9.50195C11.6178 9.5135 11.3009 9.3855 11.0333 9.11795L7.6 5.68461C7.33333 5.41795 7.2 5.10684 7.2 4.75128C7.2 4.39573 7.33333 4.08462 7.6 3.81795L11.0333 0.384615C11.3 0.117949 11.6169 -0.0100513 11.984 0.000615385C12.3511 0.0112821 12.6676 0.150393 12.9333 0.417949C13.1778 0.684615 13.3058 0.995726 13.3173 1.35128C13.3289 1.70684 13.2009 2.01795 12.9333 2.28462L11.8 3.41795H12C13.6667 3.41795 15.228 3.73484 16.684 4.36861C18.14 5.00239 19.4067 5.85795 20.484 6.93528C21.5613 8.01261 22.4169 9.27928 23.0507 10.7353C23.6844 12.1913 24.0009 13.7522 24 15.4179C23.9991 17.0837 23.6827 18.6451 23.0507 20.1019C22.4187 21.5588 21.5631 22.8255 20.484 23.9019C19.4049 24.9784 18.1382 25.8339 16.684 26.4686C15.2298 27.1033 13.6684 27.4197 12 27.4179C10.3316 27.4162 8.77067 27.0997 7.31733 26.4686Z" fill="#2E2E2E"/>
</svg>
