<svg width="42" height="42" viewBox="-3.5 -7 42 42" fill="none" xmlns="http://www.w3.org/2000/svg">
<path d="M18.2525 0.143867C17.9683 0.0209156 17.6566 -0.0244271 17.3491 0.0124663C17.0417 0.0493597 16.7495 0.167168 16.5025 0.353867L8.1375 6.96887H1.75C1.28587 6.96887 0.840752 7.15324 0.512563 7.48143C0.184374 7.80962 0 8.25474 0 8.71887V19.2189C0 19.683 0.184374 20.1281 0.512563 20.4563C0.840752 20.7845 1.28587 20.9689 1.75 20.9689H8.1375L16.415 27.5839C16.7229 27.8309 17.1053 27.9666 17.5 27.9689C17.7614 27.9732 18.0198 27.9131 18.2525 27.7939C18.5503 27.652 18.802 27.4289 18.9784 27.1503C19.1549 26.8716 19.2491 26.5487 19.25 26.2189V1.71887C19.2491 1.38902 19.1549 1.06615 18.9784 0.78748C18.802 0.508814 18.5503 0.285702 18.2525 0.143867ZM15.75 22.5789L9.835 17.8539C9.52711 17.6068 9.14474 17.4712 8.75 17.4689H3.5V10.4689H8.75C9.14474 10.4666 9.52711 10.3309 9.835 10.0839L15.75 5.35887V22.5789ZM31.3425 13.9689L34.4925 10.8364C34.6557 10.6732 34.7851 10.4795 34.8734 10.2663C34.9617 10.0531 35.0072 9.82462 35.0072 9.59387C35.0072 9.36311 34.9617 9.13462 34.8734 8.92143C34.7851 8.70824 34.6557 8.51453 34.4925 8.35137C34.3293 8.1882 34.1356 8.05877 33.9224 7.97046C33.7092 7.88216 33.4808 7.83671 33.25 7.83671C33.0192 7.83671 32.7908 7.88216 32.5776 7.97046C32.3644 8.05877 32.1707 8.1882 32.0075 8.35137L28.875 11.5014L25.7425 8.35137C25.413 8.02184 24.966 7.83671 24.5 7.83671C24.034 7.83671 23.587 8.02184 23.2575 8.35137C22.928 8.6809 22.7428 9.12784 22.7428 9.59387C22.7428 10.0599 22.928 10.5068 23.2575 10.8364L26.4075 13.9689L23.2575 17.1014C23.0935 17.2641 22.9633 17.4576 22.8744 17.6709C22.7856 17.8841 22.7399 18.1128 22.7399 18.3439C22.7399 18.5749 22.7856 18.8036 22.8744 19.0169C22.9633 19.2301 23.0935 19.4237 23.2575 19.5864C23.4202 19.7504 23.6137 19.8806 23.827 19.9694C24.0402 20.0583 24.269 20.104 24.5 20.104C24.731 20.104 24.9598 20.0583 25.173 19.9694C25.3863 19.8806 25.5798 19.7504 25.7425 19.5864L28.875 16.4364L32.0075 19.5864C32.1702 19.7504 32.3637 19.8806 32.577 19.9694C32.7902 20.0583 33.019 20.104 33.25 20.104C33.481 20.104 33.7098 20.0583 33.923 19.9694C34.1363 19.8806 34.3298 19.7504 34.4925 19.5864C34.6565 19.4237 34.7867 19.2301 34.8756 19.0169C34.9644 18.8036 35.0101 18.5749 35.0101 18.3439C35.0101 18.1128 34.9644 17.8841 34.8756 17.6709C34.7867 17.4576 34.6565 17.2641 34.4925 17.1014L31.3425 13.9689Z" fill="#F04579"/>
</svg>
