<svg width="24" height="24" viewBox="0 0 24 24" fill="none" xmlns="http://www.w3.org/2000/svg">
<path d="M12 2C17.5228 2 22 6.47715 22 12C22 14.0617 21.3747 15.9803 20.3037 17.5732C20.1885 17.7445 20.0677 17.9116 19.9424 18.0752L19.9482 18.0938L19.5938 18.5078C19.5875 18.5151 19.5805 18.522 19.5742 18.5293C19.4839 18.634 19.3895 18.7351 19.2949 18.8359C19.2636 18.8694 19.233 18.9035 19.2012 18.9365C19.1106 19.0305 19.018 19.1225 18.9238 19.2129C18.8828 19.2523 18.8415 19.2914 18.7998 19.3301C18.7004 19.4223 18.5992 19.5124 18.4961 19.6006C18.471 19.6221 18.4453 19.6428 18.4199 19.6641C18.3252 19.7435 18.2295 19.8215 18.1318 19.8975C18.0925 19.9281 18.0535 19.9592 18.0137 19.9893C17.9068 20.0698 17.7976 20.1473 17.6875 20.2236C17.6556 20.2457 17.624 20.2683 17.5918 20.29C17.4787 20.3665 17.3634 20.4398 17.2471 20.5117C17.2007 20.5403 17.1543 20.5688 17.1074 20.5967C16.9896 20.6668 16.8708 20.7354 16.75 20.8008C16.7231 20.8153 16.696 20.8294 16.6689 20.8438C16.3858 20.9936 16.0944 21.1293 15.7959 21.252C15.774 21.2609 15.7524 21.2705 15.7305 21.2793C15.5847 21.338 15.4372 21.3934 15.2881 21.4453C15.2644 21.4536 15.2406 21.4616 15.2168 21.4697C15.0637 21.5217 14.9092 21.5706 14.7529 21.6152C14.7378 21.6196 14.7222 21.6227 14.707 21.627C14.4993 21.6853 14.2891 21.7372 14.0762 21.7822C14.0248 21.7931 13.9735 21.8044 13.9219 21.8145C13.8787 21.8229 13.8353 21.83 13.792 21.8379C13.7368 21.8479 13.6815 21.8581 13.626 21.8672C13.5981 21.8718 13.57 21.8755 13.542 21.8799C13.4615 21.8923 13.3809 21.9045 13.2998 21.915C13.279 21.9177 13.2582 21.9203 13.2373 21.9229C13.1637 21.9319 13.0898 21.9398 13.0156 21.9473C12.985 21.9504 12.9545 21.9542 12.9238 21.957C12.8492 21.9639 12.7743 21.9694 12.6992 21.9746C12.6716 21.9765 12.6439 21.9788 12.6162 21.9805C12.549 21.9846 12.4816 21.9875 12.4141 21.9902C12.3754 21.9918 12.3367 21.994 12.2979 21.9951C12.1989 21.998 12.0996 22 12 22L11.7158 21.9961C11.7109 21.996 11.7061 21.9953 11.7012 21.9951C11.663 21.994 11.625 21.9918 11.5869 21.9902C11.5177 21.9874 11.4487 21.9847 11.3799 21.9805C11.3544 21.9789 11.3291 21.9764 11.3037 21.9746C11.2273 21.9694 11.1511 21.964 11.0752 21.957C11.0445 21.9542 11.014 21.9504 10.9834 21.9473C10.9093 21.9398 10.8354 21.932 10.7617 21.9229C10.7409 21.9203 10.72 21.9177 10.6992 21.915C10.6185 21.9045 10.5382 21.8923 10.458 21.8799C10.4297 21.8755 10.4013 21.8718 10.373 21.8672C10.3175 21.8581 10.2623 21.8479 10.207 21.8379C10.1637 21.83 10.1203 21.8229 10.0771 21.8145C10.0148 21.8023 9.95258 21.7897 9.89062 21.7764C9.68902 21.7331 9.48985 21.6832 9.29297 21.6279C9.27738 21.6236 9.26165 21.6197 9.24609 21.6152C9.08982 21.5705 8.93527 21.5217 8.78223 21.4697C8.75843 21.4616 8.73465 21.4536 8.71094 21.4453C8.56182 21.3934 8.41436 21.338 8.26855 21.2793C8.24662 21.2705 8.22498 21.2609 8.20312 21.252C7.89736 21.1263 7.59924 20.9862 7.30957 20.832C7.29312 20.8233 7.27616 20.8155 7.25977 20.8066C7.13423 20.7389 7.01091 20.6676 6.88867 20.5947C6.84285 20.5674 6.7973 20.5397 6.75195 20.5117C6.63561 20.4398 6.52033 20.3665 6.40723 20.29C6.37602 20.2689 6.34541 20.247 6.31445 20.2256C6.19321 20.1416 6.07332 20.0559 5.95605 19.9668C5.93038 19.9473 5.90536 19.927 5.87988 19.9072C5.76803 19.8205 5.6578 19.7319 5.5498 19.6406C5.53904 19.6315 5.5283 19.6224 5.51758 19.6133C5.40313 19.5157 5.29154 19.415 5.18164 19.3125C5.15132 19.2842 5.12079 19.2562 5.09082 19.2275C4.99098 19.1321 4.89269 19.035 4.79688 18.9355C4.76668 18.9042 4.73681 18.8726 4.70703 18.8408C4.60751 18.7348 4.5099 18.6269 4.41504 18.5166C4.41248 18.5136 4.40978 18.5108 4.40723 18.5078L4.05176 18.0938L4.05664 18.0752C3.93148 17.9118 3.81135 17.7443 3.69629 17.5732C2.62525 15.9803 2 14.0617 2 12C2 6.47715 6.47715 2 12 2ZM12 4C7.58172 4 4 7.58172 4 12C4 13.4372 4.37801 14.7838 5.04004 15.9482C5.95385 14.7637 7.38701 14 9 14H15C16.6124 14.0001 18.0449 14.7635 18.959 15.9473C19.6209 14.7829 20 13.437 20 12C20 7.58172 16.4183 4 12 4ZM12 6C13.6569 6 15 7.34315 15 9C15 10.6569 13.6569 12 12 12C10.3431 12 9 10.6569 9 9C9 7.34315 10.3431 6 12 6Z" fill="currentColor"/>
</svg>
