<svg width="24" height="24" viewBox="0 0 24 24" fill="none" xmlns="http://www.w3.org/2000/svg">
<g clip-path="url(#clip0_2972_32876)">
<path d="M12 2C17.5228 2 22 6.47715 22 12C22 17.5228 17.5228 22 12 22C6.47715 22 2 17.5228 2 12C2 6.47715 6.47715 2 12 2ZM14.4746 7.02539C13.1078 5.65856 10.8922 5.65856 9.52539 7.02539C8.84218 7.70861 8.50001 8.60583 8.5 9.5C8.50001 10.0522 8.94784 10.4999 9.5 10.5C10.0522 10.4999 10.5 10.0522 10.5 9.5C10.5 9.11457 10.6464 8.73254 10.9395 8.43945C11.5252 7.85367 12.4748 7.85367 13.0605 8.43945C13.6463 9.02524 13.6463 9.97476 13.0605 10.5605L9.23242 14.3887C8.76361 14.8575 8.50003 15.4942 8.5 16.1572V17C8.50003 17.265 8.60478 17.5196 8.79199 17.707C8.97943 17.8945 9.23494 17.9999 9.5 18H14.5C15.0521 17.9998 15.4999 17.5521 15.5 17C15.4999 16.4479 15.0521 16.0002 14.5 16L10.5273 15.999C10.5517 15.9262 10.5911 15.8581 10.6465 15.8027L14.4746 11.9746C15.8414 10.6078 15.8414 8.39222 14.4746 7.02539Z" fill="#FBB10E"/>
</g>
<defs>
<clipPath id="clip0_2972_32876">
<rect width="24" height="24" fill="white"/>
</clipPath>
</defs>
</svg>
