<svg width="20" height="20" viewBox="0 0 20 20" fill="none" xmlns="http://www.w3.org/2000/svg">
<path d="M18.5182 8.19393L16.9849 6.9606C16.8619 6.86246 16.7665 6.73406 16.7081 6.58797C16.6497 6.44189 16.6302 6.28314 16.6516 6.12726L16.8599 4.17726C16.8888 3.91815 16.8592 3.65585 16.7732 3.40972C16.6873 3.16358 16.5471 2.93988 16.3632 2.75512C16.1792 2.57037 15.9562 2.42927 15.7104 2.34224C15.4646 2.2552 15.2025 2.22445 14.9432 2.25226L12.9849 2.4606C12.829 2.48196 12.6703 2.46248 12.5242 2.40404C12.3781 2.34561 12.2497 2.25024 12.1516 2.12726L10.9432 0.618928C10.7743 0.424605 10.5656 0.268797 10.3312 0.162024C10.0969 0.0552516 9.8424 0 9.58489 0C9.32738 0 9.07287 0.0552516 8.83854 0.162024C8.60422 0.268797 8.39552 0.424605 8.22656 0.618928L6.99323 2.15226C6.89509 2.27524 6.76669 2.37061 6.62061 2.42904C6.47452 2.48748 6.31577 2.50696 6.15989 2.48559L4.22656 2.27726C3.96733 2.24945 3.70516 2.2802 3.4594 2.36724C3.21363 2.45427 2.99055 2.59537 2.80659 2.78012C2.62263 2.96488 2.4825 3.18858 2.39654 3.43472C2.31057 3.68085 2.28096 3.94315 2.30989 4.20226L2.51823 6.15226C2.53959 6.30814 2.52011 6.46689 2.46168 6.61298C2.40324 6.75906 2.30787 6.88746 2.18489 6.98559L0.65156 8.19393C0.448204 8.35713 0.284086 8.56391 0.171315 8.799C0.058545 9.0341 0 9.29152 0 9.55226C0 9.81301 0.058545 10.0704 0.171315 10.3055C0.284086 10.5406 0.448204 10.7474 0.65156 10.9106L2.18489 12.1439C2.30724 12.2426 2.40215 12.3711 2.46053 12.517C2.5189 12.6629 2.53877 12.8214 2.51823 12.9773L2.30989 14.9356C2.28101 15.1941 2.31098 15.4559 2.39757 15.7012C2.48416 15.9465 2.62512 16.1691 2.80989 16.3523C2.9904 16.5407 3.21264 16.6841 3.45869 16.7709C3.70475 16.8578 3.96777 16.8856 4.22656 16.8523L6.18489 16.6439C6.34077 16.6226 6.49952 16.642 6.64561 16.7005C6.79169 16.7589 6.92009 16.8543 7.01823 16.9773L8.25156 18.5106C8.41476 18.714 8.62154 18.8781 8.85663 18.9908C9.09173 19.1036 9.34915 19.1622 9.60989 19.1622C9.87064 19.1622 10.1281 19.1036 10.3632 18.9908C10.5982 18.8781 10.805 18.714 10.9682 18.5106L12.2016 16.9773C12.2997 16.8543 12.4281 16.7589 12.5742 16.7005C12.7203 16.642 12.879 16.6226 13.0349 16.6439L14.9932 16.8523C15.252 16.8856 15.515 16.8578 15.7611 16.7709C16.0072 16.6841 16.2294 16.5407 16.4099 16.3523C16.5947 16.1691 16.7356 15.9465 16.8222 15.7012C16.9088 15.4559 16.9388 15.1941 16.9099 14.9356L16.7016 12.9773C16.681 12.8214 16.7009 12.6629 16.7593 12.517C16.8176 12.3711 16.9125 12.2426 17.0349 12.1439L18.5682 10.9106C18.7716 10.7474 18.9357 10.5406 19.0485 10.3055C19.1612 10.0704 19.2198 9.81301 19.2198 9.55226C19.2198 9.29152 19.1612 9.0341 19.0485 8.799C18.9357 8.56391 18.7716 8.35713 18.5682 8.19393H18.5182ZM9.91823 12.1106C9.78981 12.2777 9.62744 12.4157 9.44182 12.5155C9.25619 12.6153 9.05152 12.6747 8.8413 12.6896C8.63107 12.7046 8.42006 12.6748 8.22217 12.6023C8.02429 12.5298 7.84401 12.4162 7.69323 12.2689L5.65989 10.2356C5.58219 10.1579 5.52056 10.0657 5.47851 9.96414C5.43646 9.86262 5.41482 9.75381 5.41482 9.64393C5.41482 9.53405 5.43646 9.42524 5.47851 9.32372C5.52056 9.2222 5.58219 9.12996 5.65989 9.05226C5.73759 8.97456 5.82983 8.91293 5.93135 8.87088C6.03287 8.82883 6.14168 8.80719 6.25156 8.80719C6.36144 8.80719 6.47025 8.82883 6.57177 8.87088C6.67329 8.91293 6.76553 8.97456 6.84323 9.05226L8.75156 10.9273L12.0099 6.5856C12.1425 6.40878 12.3399 6.29189 12.5587 6.26064C12.667 6.24516 12.7774 6.25117 12.8834 6.27833C12.9894 6.30549 13.089 6.35327 13.1766 6.41893C13.2641 6.48459 13.3379 6.56685 13.3936 6.66102C13.4494 6.75518 13.486 6.85941 13.5015 6.96774C13.517 7.07608 13.511 7.1864 13.4838 7.29241C13.4567 7.39842 13.4089 7.49805 13.3432 7.5856L9.91823 12.1106Z" fill="url(#paint0_linear_2122_23394)"/>
<defs>
<linearGradient id="paint0_linear_2122_23394" x1="-2.91504" y1="-2.93091" x2="17.5016" y2="17.4858" gradientUnits="userSpaceOnUse">
<stop stop-color="#FFE031"/>
<stop offset="1" stop-color="#F04579"/>
</linearGradient>
</defs>
</svg>
