<svg width="24" height="24" viewBox="0 0 24 24" fill="none" xmlns="http://www.w3.org/2000/svg">
<path d="M13.5273 13C14.0796 13 14.5273 13.4477 14.5273 14C14.5273 14.5523 14.0796 15 13.5273 15H8C6.34315 15 5 16.3431 5 18C5 18.5523 5.44772 19 6 19H12.3418C12.8939 19.0002 13.3418 19.4478 13.3418 20C13.3418 20.5522 12.8939 20.9998 12.3418 21H6C4.34315 21 3 19.6569 3 18C3 15.2386 5.23858 13 8 13H13.5273ZM19.6172 10.0762C19.9909 9.92139 20.421 10.007 20.707 10.293L22.707 12.293C23.0976 12.6835 23.0976 13.3165 22.707 13.707C22.3165 14.0976 21.6835 14.0976 21.293 13.707L21 13.4141V18C21 19.6569 19.6569 21 18 21C16.3431 21 15 19.6569 15 18C15 16.3431 16.3431 15 18 15C18.351 15 18.6869 15.0631 19 15.1738V11C19 10.5956 19.2436 10.231 19.6172 10.0762ZM12 3C14.2091 3 16 4.79086 16 7C16 9.20914 14.2091 11 12 11C9.79086 11 8 9.20914 8 7C8 4.79086 9.79086 3 12 3Z" fill="#FBB10E"/>
</svg>
