<svg width="36" height="36" viewBox="0 0 36 36" fill="none" xmlns="http://www.w3.org/2000/svg">
<circle cx="18" cy="18" r="18" fill="#FCC13F"/>
<path d="M16.0325 14.9945L17.75 13.3841V20.0988C17.75 20.2845 17.829 20.4626 17.9697 20.5939C18.1103 20.7252 18.3011 20.799 18.5 20.799C18.6989 20.799 18.8897 20.7252 19.0303 20.5939C19.171 20.4626 19.25 20.2845 19.25 20.0988V13.3841L20.9675 14.9945C21.0372 15.0601 21.1202 15.1122 21.2116 15.1478C21.303 15.1833 21.401 15.2016 21.5 15.2016C21.599 15.2016 21.697 15.1833 21.7884 15.1478C21.8798 15.1122 21.9628 15.0601 22.0325 14.9945C22.1028 14.9294 22.1586 14.852 22.1967 14.7667C22.2347 14.6813 22.2543 14.5898 22.2543 14.4974C22.2543 14.405 22.2347 14.3134 22.1967 14.2281C22.1586 14.1428 22.1028 14.0653 22.0325 14.0003L19.0325 11.1996C18.9612 11.1358 18.8771 11.0858 18.785 11.0525C18.6024 10.9825 18.3976 10.9825 18.215 11.0525C18.1229 11.0858 18.0388 11.1358 17.9675 11.1996L14.9675 14.0003C14.8976 14.0655 14.8421 14.143 14.8043 14.2283C14.7664 14.3136 14.7469 14.4051 14.7469 14.4974C14.7469 14.5897 14.7664 14.6811 14.8043 14.7664C14.8421 14.8517 14.8976 14.9292 14.9675 14.9945C15.0374 15.0598 15.1204 15.1116 15.2118 15.1469C15.3032 15.1822 15.4011 15.2004 15.5 15.2004C15.5989 15.2004 15.6968 15.1822 15.7882 15.1469C15.8796 15.1116 15.9626 15.0598 16.0325 14.9945ZM25.25 19.3986C25.0511 19.3986 24.8603 19.4724 24.7197 19.6037C24.579 19.735 24.5 19.9131 24.5 20.0988V22.8995C24.5 23.0852 24.421 23.2633 24.2803 23.3946C24.1397 23.5259 23.9489 23.5997 23.75 23.5997H13.25C13.0511 23.5997 12.8603 23.5259 12.7197 23.3946C12.579 23.2633 12.5 23.0852 12.5 22.8995V20.0988C12.5 19.9131 12.421 19.735 12.2803 19.6037C12.1397 19.4724 11.9489 19.3986 11.75 19.3986C11.5511 19.3986 11.3603 19.4724 11.2197 19.6037C11.079 19.735 11 19.9131 11 20.0988V22.8995C11 23.4566 11.2371 23.9908 11.659 24.3848C12.081 24.7787 12.6533 25 13.25 25H23.75C24.3467 25 24.919 24.7787 25.341 24.3848C25.7629 23.9908 26 23.4566 26 22.8995V20.0988C26 19.9131 25.921 19.735 25.7803 19.6037C25.6397 19.4724 25.4489 19.3986 25.25 19.3986Z" fill="white"/>
</svg>
