<svg width="38" height="38" viewBox="0 0 38 38" fill="none" xmlns="http://www.w3.org/2000/svg">
<circle cx="19" cy="19" r="19" fill="#D4D4D4"/>
<path d="M22.0917 19.5917C22.9087 18.9489 23.505 18.0675 23.7977 17.07C24.0904 16.0725 24.0649 15.0086 23.7248 14.0262C23.3847 13.0439 22.7469 12.192 21.9001 11.5891C21.0532 10.9861 20.0395 10.6621 19 10.6621C17.9605 10.6621 16.9468 10.9861 16.0999 11.5891C15.2531 12.192 14.6153 13.0439 14.2752 14.0262C13.9351 15.0086 13.9096 16.0725 14.2023 17.07C14.495 18.0675 15.0913 18.9489 15.9083 19.5917C14.5084 20.1526 13.2869 21.0828 12.3741 22.2833C11.4612 23.4838 10.8913 24.9094 10.725 26.4084C10.713 26.5178 10.7226 26.6285 10.7534 26.7342C10.7841 26.8399 10.8354 26.9386 10.9043 27.0245C11.0433 27.1979 11.2457 27.309 11.4667 27.3334C11.6877 27.3577 11.9093 27.2932 12.0828 27.1541C12.2562 27.015 12.3674 26.8127 12.3917 26.5917C12.5747 24.9627 13.3514 23.4582 14.5735 22.3657C15.7956 21.2732 17.3774 20.6692 19.0167 20.6692C20.6559 20.6692 22.2377 21.2732 23.4598 22.3657C24.6819 23.4582 25.4587 24.9627 25.6417 26.5917C25.6643 26.7965 25.762 26.9856 25.9159 27.1225C26.0698 27.2595 26.269 27.3346 26.475 27.3334H26.5667C26.7851 27.3082 26.9848 27.1978 27.1221 27.0261C27.2595 26.8544 27.3234 26.6353 27.3 26.4167C27.1329 24.9135 26.5599 23.4842 25.6424 22.2819C24.7249 21.0795 23.4974 20.1496 22.0917 19.5917ZM19 19C18.3407 19 17.6963 18.8045 17.1481 18.4383C16.5999 18.072 16.1727 17.5514 15.9204 16.9423C15.6681 16.3332 15.6021 15.663 15.7307 15.0164C15.8593 14.3698 16.1768 13.7758 16.643 13.3097C17.1091 12.8435 17.7031 12.526 18.3497 12.3974C18.9963 12.2688 19.6665 12.3348 20.2756 12.5871C20.8847 12.8394 21.4053 13.2666 21.7716 13.8148C22.1378 14.363 22.3333 15.0074 22.3333 15.6667C22.3333 16.5507 21.9821 17.3986 21.357 18.0237C20.7319 18.6488 19.8841 19 19 19Z" fill="#737373"/>
</svg>
