<svg width="42" height="42" viewBox="0 0 42 42" fill="none" xmlns="http://www.w3.org/2000/svg">
<path d="M21.7525 7.17512C21.4683 7.05217 21.1566 7.00682 20.8491 7.04372C20.5417 7.08061 20.2495 7.19842 20.0025 7.38512L11.6375 14.0001H5.25C4.78587 14.0001 4.34075 14.1845 4.01256 14.5127C3.68437 14.8409 3.5 15.286 3.5 15.7501V26.2501C3.5 26.7142 3.68437 27.1594 4.01256 27.4876C4.34075 27.8157 4.78587 28.0001 5.25 28.0001H11.6375L19.915 34.6151C20.2229 34.8622 20.6053 34.9978 21 35.0001C21.2614 35.0044 21.5198 34.9443 21.7525 34.8251C22.0503 34.6833 22.302 34.4602 22.4784 34.1815C22.6549 33.9028 22.7491 33.58 22.75 33.2501V8.75012C22.7491 8.42027 22.6549 8.0974 22.4784 7.81873C22.302 7.54006 22.0503 7.31695 21.7525 7.17512ZM19.25 29.6101L13.335 24.8851C13.0271 24.6381 12.6447 24.5024 12.25 24.5001H7V17.5001H12.25C12.6447 17.4978 13.0271 17.3621 13.335 17.1151L19.25 12.3901V29.6101ZM34.405 11.0951C34.0755 10.7656 33.6285 10.5805 33.1625 10.5805C32.6965 10.5805 32.2495 10.7656 31.92 11.0951C31.5905 11.4246 31.4053 11.8716 31.4053 12.3376C31.4053 12.8036 31.5905 13.2506 31.92 13.5801C32.9505 14.609 33.7557 15.841 34.2845 17.1978C34.8132 18.5546 35.054 20.0066 34.9915 21.4614C34.9289 22.9163 34.5644 24.3422 33.9212 25.6487C33.2779 26.9551 32.37 28.1135 31.255 29.0501C30.9842 29.2817 30.7905 29.5903 30.6999 29.9349C30.6092 30.2794 30.6259 30.6434 30.7476 30.9783C30.8694 31.3131 31.0904 31.6028 31.3812 31.8086C31.672 32.0144 32.0187 32.1266 32.375 32.1301C32.7839 32.1309 33.1802 31.9885 33.495 31.7276C34.9841 30.4804 36.1974 28.9369 37.0578 27.1954C37.9181 25.4538 38.4065 23.5523 38.4921 21.6117C38.5777 19.6711 38.2585 17.734 37.5549 15.9234C36.8513 14.1129 35.7786 12.4686 34.405 11.0951ZM29.4525 16.0476C29.2893 15.8844 29.0956 15.755 28.8824 15.6667C28.6692 15.5784 28.4408 15.533 28.21 15.533C27.9792 15.533 27.7508 15.5784 27.5376 15.6667C27.3244 15.755 27.1307 15.8844 26.9675 16.0476C26.8043 16.2108 26.6749 16.4045 26.5866 16.6177C26.4983 16.8309 26.4528 17.0594 26.4528 17.2901C26.4528 17.5209 26.4983 17.7494 26.5866 17.9626C26.6749 18.1757 26.8043 18.3695 26.9675 18.5326C27.6248 19.186 27.9961 20.0734 28 21.0001C28.0004 21.51 27.8894 22.0138 27.6748 22.4763C27.4602 22.9387 27.1471 23.3488 26.7575 23.6776C26.5803 23.8245 26.4338 24.005 26.3265 24.2086C26.2191 24.4122 26.1529 24.635 26.1318 24.8642C26.1107 25.0934 26.135 25.3245 26.2033 25.5443C26.2716 25.7641 26.3826 25.9683 26.53 26.1451C26.6781 26.321 26.8595 26.4661 27.0637 26.5718C27.268 26.6776 27.4911 26.7421 27.7202 26.7616C27.9494 26.7811 28.1802 26.7552 28.3993 26.6855C28.6185 26.6158 28.8218 26.5035 28.9975 26.3551C29.7799 25.6991 30.4094 24.8798 30.8417 23.9547C31.274 23.0297 31.4987 22.0212 31.5 21.0001C31.4901 19.1453 30.7553 17.3679 29.4525 16.0476Z" fill="#F04579"/>
</svg>
