<svg width="94" height="104" viewBox="0 0 94 104" fill="none" xmlns="http://www.w3.org/2000/svg">
<g filter="url(#filter0_d_2605_22057)">
<path d="M62.8849 1.7998C76.6451 1.79989 87.7998 12.9387 87.7998 26.6789C87.7997 35.7643 82.9222 43.7117 75.6396 48.054C82.915 52.3186 87.7998 60.2122 87.7998 69.2451C87.7997 82.8063 76.7903 93.7997 63.2094 93.7998C63.1011 93.7998 62.9929 93.7987 62.8849 93.7973V93.7891C62.7992 93.7953 62.7127 93.7998 62.6254 93.7998C60.6903 93.7998 59.1217 92.2335 59.1217 90.3012C59.1217 88.369 60.6903 86.8027 62.6254 86.8027C62.7127 86.8027 62.7992 86.8068 62.8849 86.8131V86.7565C71.2264 85.2024 77.5409 77.8954 77.5409 69.1155C77.5409 60.4821 71.4356 53.2728 63.3012 51.5569C63.2922 51.5569 63.283 51.5576 63.2739 51.5576C63.2381 51.5576 63.2024 51.5558 63.1667 51.5547C63.0729 51.556 62.979 51.5576 62.8849 51.5576L62.8846 51.5572V51.5354C61.1329 51.3419 59.7703 49.8597 59.7703 48.059C59.7703 46.2583 61.1329 44.7758 62.8846 44.5823V44.5372C70.5055 43.4304 76.3592 36.8801 76.3592 28.9634C76.3591 21.1464 70.6519 14.6618 63.1714 13.4343C63.003 13.4489 62.8327 13.4572 62.6605 13.4572H29.9044V33.9352C29.9043 37.1555 27.2898 39.7659 24.0649 39.7659C20.8399 39.7659 18.2254 37.1555 18.2253 33.9352V7.63085C18.2253 7.31242 18.2514 6.99993 18.3006 6.69535C18.3098 6.63826 18.3199 6.58145 18.3307 6.52493C18.8482 3.83342 21.2185 1.79982 24.0649 1.7998C24.1404 1.7998 24.2156 1.80162 24.2904 1.80446H62.6605C62.7355 1.80446 62.8102 1.80595 62.8846 1.80876L62.8849 1.7998Z" fill="url(#paint0_linear_2605_22057)"/>
<path d="M37.5004 38.1952C39.9574 38.1953 41.949 40.1845 41.9491 42.6379V89.0428C41.9491 91.4963 39.9574 93.4854 37.5004 93.4855C35.0433 93.4855 33.0513 91.4964 33.0513 89.0428V42.6379C33.0514 40.1844 35.0433 38.1953 37.5004 38.1952Z" fill="url(#paint1_linear_2605_22057)"/>
<path fill-rule="evenodd" clip-rule="evenodd" d="M51.1263 47.8954C53.5833 47.8955 55.575 49.8846 55.575 52.338V79.4536C55.5749 81.907 53.5832 83.8958 51.1263 83.8959C48.6693 83.8959 46.6773 81.9071 46.6772 79.4536V52.338C46.6772 49.8845 48.6692 47.8954 51.1263 47.8954ZM54.1065 79.4533C54.1065 79.5532 54.1012 79.652 54.0914 79.7494C54.0962 79.7021 54.1004 79.6545 54.1029 79.6065L54.1065 79.4533Z" fill="url(#paint2_linear_2605_22057)"/>
<path fill-rule="evenodd" clip-rule="evenodd" d="M23.8745 51.6431C26.3315 51.6432 28.3232 53.6323 28.3232 56.0858V75.5956C28.3231 78.0491 26.3315 80.0382 23.8745 80.0383C21.4175 80.0382 19.4255 78.0491 19.4254 75.5956V56.0858C19.4254 53.6323 21.4174 51.6432 23.8745 51.6431ZM23.8745 78.5718C23.8582 78.5718 23.8419 78.5707 23.8257 78.5704L23.8745 78.5718ZM23.5898 78.5572C23.6333 78.5616 23.677 78.5657 23.721 78.5679L23.7622 78.5686C23.7043 78.5663 23.6468 78.5627 23.5898 78.5572ZM24.4575 78.5142C24.4634 78.513 24.4695 78.5126 24.4754 78.5113C24.4832 78.5097 24.4909 78.5073 24.4987 78.5056C24.485 78.5085 24.4712 78.5115 24.4575 78.5142Z" fill="url(#paint3_linear_2605_22057)"/>
<path d="M10.2489 58.5873C12.7059 58.5874 14.6977 60.5765 14.6977 63.0299V68.6512C14.6976 71.1046 12.7059 73.0937 10.2489 73.0938C7.79181 73.0938 5.79983 71.1047 5.7998 68.6512V63.0299C5.7998 60.5764 7.7918 58.5873 10.2489 58.5873Z" fill="url(#paint4_linear_2605_22057)"/>
</g>
<defs>
<filter id="filter0_d_2605_22057" x="-0.000195503" y="-0.000195503" width="93.6" height="103.6" filterUnits="userSpaceOnUse" color-interpolation-filters="sRGB">
<feFlood flood-opacity="0" result="BackgroundImageFix"/>
<feColorMatrix in="SourceAlpha" type="matrix" values="0 0 0 0 0 0 0 0 0 0 0 0 0 0 0 0 0 0 127 0" result="hardAlpha"/>
<feOffset dy="4"/>
<feGaussianBlur stdDeviation="2.9"/>
<feComposite in2="hardAlpha" operator="out"/>
<feColorMatrix type="matrix" values="0 0 0 0 0 0 0 0 0 0 0 0 0 0 0 0 0 0 0.09 0"/>
<feBlend mode="normal" in2="BackgroundImageFix" result="effect1_dropShadow_2605_22057"/>
<feBlend mode="normal" in="SourceGraphic" in2="effect1_dropShadow_2605_22057" result="shape"/>
</filter>
<linearGradient id="paint0_linear_2605_22057" x1="5.7998" y1="1.7998" x2="87.5513" y2="94.0201" gradientUnits="userSpaceOnUse">
<stop stop-color="#FFE031"/>
<stop offset="1" stop-color="#F04579"/>
</linearGradient>
<linearGradient id="paint1_linear_2605_22057" x1="5.7998" y1="1.7998" x2="87.5513" y2="94.0201" gradientUnits="userSpaceOnUse">
<stop stop-color="#FFE031"/>
<stop offset="1" stop-color="#F04579"/>
</linearGradient>
<linearGradient id="paint2_linear_2605_22057" x1="5.7998" y1="1.7998" x2="87.5513" y2="94.0201" gradientUnits="userSpaceOnUse">
<stop stop-color="#FFE031"/>
<stop offset="1" stop-color="#F04579"/>
</linearGradient>
<linearGradient id="paint3_linear_2605_22057" x1="5.7998" y1="1.7998" x2="87.5513" y2="94.0201" gradientUnits="userSpaceOnUse">
<stop stop-color="#FFE031"/>
<stop offset="1" stop-color="#F04579"/>
</linearGradient>
<linearGradient id="paint4_linear_2605_22057" x1="5.7998" y1="1.7998" x2="87.5513" y2="94.0201" gradientUnits="userSpaceOnUse">
<stop stop-color="#FFE031"/>
<stop offset="1" stop-color="#F04579"/>
</linearGradient>
</defs>
</svg>
