<svg width="119" height="22" viewBox="0 0 119 22" fill="none" xmlns="http://www.w3.org/2000/svg">
<path d="M-6.63996e-05 20.832V0.364031H8.14793C12.1799 0.364031 14.6439 2.46403 14.6439 5.88003C14.6439 8.14803 13.6359 9.77203 11.7039 10.584C13.8599 11.284 14.9519 12.908 14.9519 15.288C14.9519 18.788 12.5159 20.832 8.28793 20.832H-6.63996e-05ZM7.83993 3.52803H3.58393V9.10003H7.92393C9.88393 9.10003 10.9759 8.06403 10.9759 6.24403C10.9759 4.48003 9.85593 3.52803 7.83993 3.52803ZM8.14793 12.124H3.58393V17.668H8.14793C10.1639 17.668 11.2839 16.688 11.2839 14.84C11.2839 13.104 10.1359 12.124 8.14793 12.124ZM27.8571 10.976C26.6251 10.976 25.5891 9.96803 25.5891 8.76403C25.5891 7.53203 26.6251 6.52403 27.8571 6.52403C29.0891 6.52403 30.1251 7.53203 30.1251 8.76403C30.1251 9.96803 29.0891 10.976 27.8571 10.976ZM27.8571 21.168C26.6251 21.168 25.5891 20.16 25.5891 18.956C25.5891 17.724 26.6251 16.716 27.8571 16.716C29.0891 16.716 30.1251 17.724 30.1251 18.956C30.1251 20.16 29.0891 21.168 27.8571 21.168ZM40.8513 6.07603C40.8513 2.49203 43.8193 3.0756e-05 48.1313 3.0756e-05C52.2753 3.0756e-05 54.9073 2.29603 55.0193 5.99203H51.4353C51.3513 4.22803 50.0913 3.19203 48.0753 3.19203C45.8633 3.19203 44.4353 4.25603 44.4353 5.96403C44.4353 7.42003 45.2193 8.23203 46.9273 8.62403L50.1473 9.32403C53.6473 10.08 55.3553 11.872 55.3553 14.924C55.3553 18.732 52.3873 21.196 47.8793 21.196C43.5113 21.196 40.6553 18.872 40.5713 15.204H44.1553C44.1833 16.94 45.5833 17.976 47.8793 17.976C50.2593 17.976 51.7713 16.94 51.7713 15.232C51.7713 13.86 51.0713 13.048 49.3913 12.684L46.1433 11.956C42.6713 11.2 40.8513 9.21203 40.8513 6.07603ZM57.2816 13.888C57.2816 9.60403 60.1096 6.58003 64.1976 6.58003C67.9776 6.58003 70.5536 8.68003 70.9176 12.012H67.5016C67.1096 10.444 65.9616 9.63203 64.3376 9.63203C62.1536 9.63203 60.6976 11.284 60.6976 13.888C60.6976 16.492 62.0416 18.116 64.2256 18.116C65.9336 18.116 67.1376 17.276 67.5016 15.764H70.9456C70.5256 18.984 67.8376 21.196 64.2256 21.196C60.0256 21.196 57.2816 18.284 57.2816 13.888ZM79.6761 21.196C75.5601 21.196 72.6761 18.2 72.6761 13.916C72.6761 9.57603 75.5041 6.58003 79.5641 6.58003C83.7081 6.58003 86.3401 9.35203 86.3401 13.664V14.7L75.9241 14.728C76.1761 17.164 77.4641 18.396 79.7321 18.396C81.6081 18.396 82.8401 17.668 83.2321 16.352H86.3961C85.8081 19.376 83.2881 21.196 79.6761 21.196ZM79.5921 9.38003C77.5761 9.38003 76.3441 10.472 76.0081 12.544H82.9521C82.9521 10.64 81.6361 9.38003 79.5921 9.38003ZM92.4901 20.832H89.0741V7.00003H92.2381L92.5181 8.79203C93.3861 7.39203 95.0661 6.58003 96.9421 6.58003C100.414 6.58003 102.206 8.73603 102.206 12.32V20.832H98.7901V13.132C98.7901 10.808 97.6421 9.68803 95.8781 9.68803C93.7781 9.68803 92.4901 11.144 92.4901 13.384V20.832ZM111.75 21.196C107.634 21.196 104.75 18.2 104.75 13.916C104.75 9.57603 107.578 6.58003 111.638 6.58003C115.782 6.58003 118.414 9.35203 118.414 13.664V14.7L107.998 14.728C108.25 17.164 109.538 18.396 111.806 18.396C113.682 18.396 114.914 17.668 115.306 16.352H118.47C117.882 19.376 115.362 21.196 111.75 21.196ZM111.666 9.38003C109.65 9.38003 108.418 10.472 108.082 12.544H115.026C115.026 10.64 113.71 9.38003 111.666 9.38003Z" fill="url(#paint0_linear_2605_22245)"/>
<defs>
<linearGradient id="paint0_linear_2605_22245" x1="-2.26807" y1="-9.16797" x2="115.46" y2="33.593" gradientUnits="userSpaceOnUse">
<stop stop-color="#FFE031"/>
<stop offset="1" stop-color="#F04579"/>
</linearGradient>
</defs>
</svg>
