<svg width="353" height="52" viewBox="0 0 353 52" fill="none" xmlns="http://www.w3.org/2000/svg">
<rect width="353" height="52" rx="12" fill="#F2F2F2"/>
<mask id="mask0_2605_23595" style="mask-type:alpha" maskUnits="userSpaceOnUse" x="83" y="16" width="20" height="20">
<path d="M102.612 24.1814H93.1983V28.0445H98.5732C98.342 29.294 97.6428 30.3596 96.581 31.0712C95.688 31.6716 94.54 32.0211 93.1983 32.0211C90.5998 32.0211 88.3957 30.2666 87.6081 27.9004C87.4086 27.2989 87.2987 26.6599 87.2987 25.9983C87.2987 25.3367 87.4086 24.6966 87.6081 24.0962C88.3957 21.7311 90.5998 19.9755 93.1983 19.9755C94.6658 19.9755 95.9804 20.4816 97.0173 21.4713L99.8787 18.6057C98.1494 16.9908 95.892 16 93.1983 16C89.2966 16 85.9184 18.2414 84.2752 21.5076C83.5964 22.8592 83.2134 24.3834 83.2134 25.9994C83.2134 27.6155 83.5964 29.1396 84.2752 30.4913C85.9184 33.7597 89.2966 36 93.1983 36C95.8931 36 98.1619 35.1137 99.8152 33.5861C101.702 31.8452 102.787 29.2702 102.787 26.2275C102.787 25.5182 102.726 24.835 102.612 24.1825V24.1814Z" fill="#E94FFF"/>
</mask>
<g mask="url(#mask0_2605_23595)">
<g filter="url(#filter0_f_2605_23595)">
<g clip-path="url(#paint0_angular_2605_23595_clip_path)" data-figma-skip-parse="true"><g transform="matrix(0.00804129 -0.00805186 0.00804128 0.00805186 92.8953 25.7922)"><foreignObject x="-1752.4" y="-1752.4" width="3504.81" height="3504.81"><div xmlns="http://www.w3.org/1999/xhtml" style="background:conic-gradient(from 90deg,rgba(255, 70, 65, 1) 0deg,rgba(255, 70, 65, 1) 4.14555deg,rgba(49, 134, 255, 1) 39.154deg,rgba(49, 134, 255, 1) 72.0044deg,rgba(0, 165, 183, 1) 96.7463deg,rgba(14, 188, 95, 1) 120.897deg,rgba(14, 188, 95, 1) 154.722deg,rgba(108, 196, 0, 1) 179.136deg,rgba(255, 204, 0, 1) 203.588deg,rgba(255, 211, 20, 1) 226.915deg,rgba(255, 204, 0, 1) 251.688deg,rgba(255, 106, 43, 1) 273.129deg,rgba(253, 70, 65, 1) 289.305deg,rgba(255, 70, 65, 1) 359.593deg,rgba(255, 70, 65, 1) 360deg);height:100%;width:100%;opacity:1"></div></foreignObject></g></g><path d="M80.4727 25.7923C80.4727 18.6755 86.2343 12.9062 93.3417 12.9062C100.449 12.9062 106.211 18.6755 106.211 25.7923C106.211 32.909 100.449 38.6782 93.3417 38.6782C86.2343 38.6782 80.4726 32.909 80.4727 25.7923Z" data-figma-gradient-fill="{&#34;type&#34;:&#34;GRADIENT_ANGULAR&#34;,&#34;stops&#34;:[{&#34;color&#34;:{&#34;r&#34;:1.0,&#34;g&#34;:0.27450981736183167,&#34;b&#34;:0.25490197539329529,&#34;a&#34;:1.0},&#34;position&#34;:0.011515417136251926},{&#34;color&#34;:{&#34;r&#34;:0.19215686619281769,&#34;g&#34;:0.52549022436141968,&#34;b&#34;:1.0,&#34;a&#34;:1.0},&#34;position&#34;:0.10876122117042542},{&#34;color&#34;:{&#34;r&#34;:0.19215686619281769,&#34;g&#34;:0.52549022436141968,&#34;b&#34;:1.0,&#34;a&#34;:1.0},&#34;position&#34;:0.20001229643821716},{&#34;color&#34;:{&#34;r&#34;:0.0,&#34;g&#34;:0.64705884456634521,&#34;b&#34;:0.71764707565307617,&#34;a&#34;:1.0},&#34;position&#34;:0.26873961091041565},{&#34;color&#34;:{&#34;r&#34;:0.054901961237192154,&#34;g&#34;:0.73725491762161255,&#34;b&#34;:0.37254902720451355,&#34;a&#34;:1.0},&#34;position&#34;:0.33582508563995361},{&#34;color&#34;:{&#34;r&#34;:0.054901961237192154,&#34;g&#34;:0.73725491762161255,&#34;b&#34;:0.37254902720451355,&#34;a&#34;:1.0},&#34;position&#34;:0.42978334426879883},{&#34;color&#34;:{&#34;r&#34;:0.42528781294822693,&#34;g&#34;:0.77231442928314209,&#34;b&#34;:0.0,&#34;a&#34;:1.0},&#34;position&#34;:0.49760133028030396},{&#34;color&#34;:{&#34;r&#34;:1.0,&#34;g&#34;:0.80000001192092896,&#34;b&#34;:0.0,&#34;a&#34;:1.0},&#34;position&#34;:0.56552332639694214},{&#34;color&#34;:{&#34;r&#34;:1.0,&#34;g&#34;:0.82745099067687988,&#34;b&#34;:0.078431375324726105,&#34;a&#34;:1.0},&#34;position&#34;:0.63031959533691406},{&#34;color&#34;:{&#34;r&#34;:1.0,&#34;g&#34;:0.80000001192092896,&#34;b&#34;:0.0,&#34;a&#34;:1.0},&#34;position&#34;:0.69913208484649658},{&#34;color&#34;:{&#34;r&#34;:1.0,&#34;g&#34;:0.41842123866081238,&#34;b&#34;:0.16917318105697632,&#34;a&#34;:1.0},&#34;position&#34;:0.75869029760360718},{&#34;color&#34;:{&#34;r&#34;:0.99215686321258545,&#34;g&#34;:0.27450981736183167,&#34;b&#34;:0.25490197539329529,&#34;a&#34;:1.0},&#34;position&#34;:0.80362409353256226},{&#34;color&#34;:{&#34;r&#34;:1.0,&#34;g&#34;:0.27450981736183167,&#34;b&#34;:0.25490197539329529,&#34;a&#34;:1.0},&#34;position&#34;:0.99887031316757202}],&#34;stopsVar&#34;:[{&#34;color&#34;:{&#34;r&#34;:1.0,&#34;g&#34;:0.27450981736183167,&#34;b&#34;:0.25490197539329529,&#34;a&#34;:1.0},&#34;position&#34;:0.011515417136251926},{&#34;color&#34;:{&#34;r&#34;:0.19215686619281769,&#34;g&#34;:0.52549022436141968,&#34;b&#34;:1.0,&#34;a&#34;:1.0},&#34;position&#34;:0.10876122117042542},{&#34;color&#34;:{&#34;r&#34;:0.19215686619281769,&#34;g&#34;:0.52549022436141968,&#34;b&#34;:1.0,&#34;a&#34;:1.0},&#34;position&#34;:0.20001229643821716},{&#34;color&#34;:{&#34;r&#34;:0.0,&#34;g&#34;:0.64705884456634521,&#34;b&#34;:0.71764707565307617,&#34;a&#34;:1.0},&#34;position&#34;:0.26873961091041565},{&#34;color&#34;:{&#34;r&#34;:0.054901961237192154,&#34;g&#34;:0.73725491762161255,&#34;b&#34;:0.37254902720451355,&#34;a&#34;:1.0},&#34;position&#34;:0.33582508563995361},{&#34;color&#34;:{&#34;r&#34;:0.054901961237192154,&#34;g&#34;:0.73725491762161255,&#34;b&#34;:0.37254902720451355,&#34;a&#34;:1.0},&#34;position&#34;:0.42978334426879883},{&#34;color&#34;:{&#34;r&#34;:0.42528781294822693,&#34;g&#34;:0.77231442928314209,&#34;b&#34;:0.0,&#34;a&#34;:1.0},&#34;position&#34;:0.49760133028030396},{&#34;color&#34;:{&#34;r&#34;:1.0,&#34;g&#34;:0.80000001192092896,&#34;b&#34;:0.0,&#34;a&#34;:1.0},&#34;position&#34;:0.56552332639694214},{&#34;color&#34;:{&#34;r&#34;:1.0,&#34;g&#34;:0.82745099067687988,&#34;b&#34;:0.078431375324726105,&#34;a&#34;:1.0},&#34;position&#34;:0.63031959533691406},{&#34;color&#34;:{&#34;r&#34;:1.0,&#34;g&#34;:0.80000001192092896,&#34;b&#34;:0.0,&#34;a&#34;:1.0},&#34;position&#34;:0.69913208484649658},{&#34;color&#34;:{&#34;r&#34;:1.0,&#34;g&#34;:0.41842123866081238,&#34;b&#34;:0.16917318105697632,&#34;a&#34;:1.0},&#34;position&#34;:0.75869029760360718},{&#34;color&#34;:{&#34;r&#34;:0.99215686321258545,&#34;g&#34;:0.27450981736183167,&#34;b&#34;:0.25490197539329529,&#34;a&#34;:1.0},&#34;position&#34;:0.80362409353256226},{&#34;color&#34;:{&#34;r&#34;:1.0,&#34;g&#34;:0.27450981736183167,&#34;b&#34;:0.25490197539329529,&#34;a&#34;:1.0},&#34;position&#34;:0.99887031316757202}],&#34;transform&#34;:{&#34;m00&#34;:16.082571029663086,&#34;m01&#34;:16.082569122314453,&#34;m02&#34;:76.812774658203125,&#34;m10&#34;:-16.103721618652344,&#34;m11&#34;:16.103721618652344,&#34;m12&#34;:25.792234420776367},&#34;opacity&#34;:1.0,&#34;blendMode&#34;:&#34;NORMAL&#34;,&#34;visible&#34;:true}"/>
</g>
<g filter="url(#filter1_f_2605_23595)">
<path d="M92.0896 28.8224C94.8027 30.0558 97.5275 29.9001 98.1755 28.4745C98.8236 27.049 97.1496 24.8935 94.4364 23.6601C91.7233 22.4266 88.9986 22.5824 88.3505 24.0079C87.7024 25.4334 89.3765 27.589 92.0896 28.8224Z" fill="#3186FF"/>
</g>
<g filter="url(#filter2_f_2605_23595)">
<path d="M106.567 27.3082C110.676 27.3082 114.007 25.9232 114.007 24.2147C114.007 22.5061 110.676 21.1211 106.567 21.1211C102.459 21.1211 99.1282 22.5061 99.1282 24.2147C99.1282 25.9232 102.459 27.3082 106.567 27.3082Z" fill="#3186FF"/>
</g>
<g filter="url(#filter3_f_2605_23595)">
<path d="M98.4879 24.5969C102.58 24.5969 105.896 23.5322 105.896 22.2189C105.896 20.9055 102.58 19.8408 98.4879 19.8408C94.3963 19.8408 91.0793 20.9055 91.0793 22.2189C91.0793 23.5322 94.3963 24.5969 98.4879 24.5969Z" fill="#FF4641"/>
</g>
<g filter="url(#filter4_f_2605_23595)">
<path d="M102.756 21.304C106.848 21.304 110.165 20.2393 110.165 18.9259C110.165 17.6125 106.848 16.5479 102.756 16.5479C98.6646 16.5479 95.3477 17.6125 95.3477 18.9259C95.3477 20.2393 98.6646 21.304 102.756 21.304Z" fill="#FF5B8B"/>
</g>
<g filter="url(#filter5_f_2605_23595)">
<path d="M97.6951 28.9871C102.393 28.9871 106.201 27.5948 106.201 25.8773C106.201 24.1599 102.393 22.7676 97.6951 22.7676C92.9973 22.7676 89.189 24.1599 89.189 25.8773C89.189 27.5948 92.9973 28.9871 97.6951 28.9871Z" fill="#3186FF"/>
</g>
<g filter="url(#filter6_f_2605_23595)">
<path d="M99.5382 22.1059C101.738 20.9037 103.01 18.9948 102.38 17.8423C101.751 16.6899 99.4568 16.7303 97.2571 17.9325C95.0575 19.1348 93.785 21.0436 94.4149 22.1961C95.0448 23.3485 97.3386 23.3082 99.5382 22.1059Z" fill="#FF4641"/>
</g>
</g>
<path d="M134.023 18.6406V20.0645C134.023 21.5498 134.023 23.1758 133.601 25.4258H135.798V27.0078H129.488V33.582H127.519V27.0078H121.314V25.4258H131.615C132.054 23.2637 132.072 21.6465 132.072 20.2227H123.019V18.6406H134.023ZM149.615 18.3418V19.3965C149.615 20.4424 149.615 21.7432 149.298 23.4043H151.39V24.9512H136.871V23.4043H147.33C147.611 21.9629 147.655 20.8291 147.664 19.8887H138.664V18.3418H149.615ZM149.597 26.2168V30.5234H140.509V31.877H150.001V33.4062H138.558V29.0293H147.646V27.7461H138.541V26.2168H149.597ZM170.41 17.6738V33.5645H168.546V17.6738H170.41ZM167.123 18.0605V32.8086H165.259V27.5H162.781V25.9004H165.259V23.5449H163.062C162.315 26.1816 160.654 28.4492 157.683 30.207L156.541 28.8184C159.836 26.876 161.348 24.3887 161.638 21.1895H157.384V19.6074H163.572C163.572 20.4072 163.519 21.1895 163.414 21.9453H165.259V18.0605H167.123ZM185.562 17.6738V27.1133H183.611V23.2285H180.904V21.6289H183.611V17.6738H185.562ZM180.183 27.5176C183.558 27.5176 185.615 28.625 185.615 30.541C185.615 32.457 183.558 33.5645 180.183 33.5645C176.826 33.5645 174.769 32.457 174.787 30.541C174.769 28.625 176.826 27.5176 180.183 27.5176ZM180.183 29.0117C177.968 29.0117 176.72 29.5391 176.72 30.541C176.72 31.5254 177.968 32.0527 180.183 32.0527C182.398 32.0527 183.664 31.5254 183.664 30.541C183.664 29.5391 182.398 29.0117 180.183 29.0117ZM178.091 20.3984C178.091 22.332 179.375 24.2832 181.835 25.1094L180.851 26.6562C179.084 26.0586 177.828 24.8457 177.142 23.3516C176.439 25.0479 175.112 26.4014 173.222 27.0781L172.203 25.5312C174.751 24.6523 176.105 22.5078 176.105 20.416V20.293H172.8V18.7109H181.378V20.293H178.091V20.3984ZM195.037 18.5703C198.394 18.5703 200.96 20.3457 200.96 23.0527C200.96 25.7949 198.394 27.5703 195.037 27.5703C191.697 27.5703 189.13 25.7949 189.148 23.0527C189.13 20.3457 191.697 18.5703 195.037 18.5703ZM195.037 20.1523C192.734 20.1348 191.029 21.2949 191.029 23.0527C191.029 24.8457 192.734 25.9707 195.037 25.9707C197.357 25.9707 199.044 24.8457 199.044 23.0527C199.044 21.2949 197.357 20.1348 195.037 20.1523ZM202.332 29.9609V31.5605H187.812V29.9609H202.332ZM217.888 30.1016V31.7188H203.369V30.1016H209.626V27.5176H205.091V22.3145H214.232V20.3457H205.056V18.7637H216.166V23.8613H207.042V25.918H216.535V27.5176H211.56V30.1016H217.888ZM237.716 30.1016V31.7188H223.197V30.1016H229.455V27.5176H224.919V22.3145H234.06V20.3457H224.884V18.7637H235.994V23.8613H226.871V25.918H236.363V27.5176H231.388V30.1016H237.716ZM251.392 19.2207V21.0137C251.392 23.1406 251.392 25.3379 250.812 28.6777L248.826 28.502C249.441 25.373 249.441 23.0703 249.441 21.0137V20.8027H240.283V19.2207H251.392ZM253.238 29.7852V31.3848H238.753V29.7852H253.238ZM267.546 17.6914V29.1699H265.578V17.6914H267.546ZM267.986 31.666V33.248H257.035V28.0098H259.003V31.666H267.986ZM258.88 18.7285C261.289 18.7285 263.152 20.3984 263.152 22.7012C263.152 25.0566 261.289 26.6914 258.88 26.6914C256.455 26.6914 254.591 25.0566 254.591 22.7012C254.591 20.3984 256.455 18.7285 258.88 18.7285ZM258.88 20.4336C257.527 20.4336 256.49 21.3301 256.507 22.7012C256.49 24.1074 257.527 24.9863 258.88 24.9863C260.199 24.9863 261.236 24.1074 261.236 22.7012C261.236 21.3301 260.199 20.4336 258.88 20.4336Z" fill="#141414"/>
<defs>
<filter id="filter0_f_2605_23595" x="78.4727" y="10.9062" width="29.738" height="29.7715" filterUnits="userSpaceOnUse" color-interpolation-filters="sRGB">
<feFlood flood-opacity="0" result="BackgroundImageFix"/>
<feBlend mode="normal" in="SourceGraphic" in2="BackgroundImageFix" result="shape"/>
<feGaussianBlur stdDeviation="1" result="effect1_foregroundBlur_2605_23595"/>
</filter>
<clipPath id="paint0_angular_2605_23595_clip_path"><path d="M80.4727 25.7923C80.4727 18.6755 86.2343 12.9062 93.3417 12.9062C100.449 12.9062 106.211 18.6755 106.211 25.7923C106.211 32.909 100.449 38.6782 93.3417 38.6782C86.2343 38.6782 80.4726 32.909 80.4727 25.7923Z"/></clipPath><filter id="filter1_f_2605_23595" x="86.2112" y="20.8281" width="14.1038" height="10.8262" filterUnits="userSpaceOnUse" color-interpolation-filters="sRGB">
<feFlood flood-opacity="0" result="BackgroundImageFix"/>
<feBlend mode="normal" in="SourceGraphic" in2="BackgroundImageFix" result="shape"/>
<feGaussianBlur stdDeviation="1" result="effect1_foregroundBlur_2605_23595"/>
</filter>
<filter id="filter2_f_2605_23595" x="97.1282" y="19.1211" width="18.8784" height="10.1875" filterUnits="userSpaceOnUse" color-interpolation-filters="sRGB">
<feFlood flood-opacity="0" result="BackgroundImageFix"/>
<feBlend mode="normal" in="SourceGraphic" in2="BackgroundImageFix" result="shape"/>
<feGaussianBlur stdDeviation="1" result="effect1_foregroundBlur_2605_23595"/>
</filter>
<filter id="filter3_f_2605_23595" x="89.0793" y="17.8408" width="18.8171" height="8.75586" filterUnits="userSpaceOnUse" color-interpolation-filters="sRGB">
<feFlood flood-opacity="0" result="BackgroundImageFix"/>
<feBlend mode="normal" in="SourceGraphic" in2="BackgroundImageFix" result="shape"/>
<feGaussianBlur stdDeviation="1" result="effect1_foregroundBlur_2605_23595"/>
</filter>
<filter id="filter4_f_2605_23595" x="93.3477" y="14.5479" width="18.8171" height="8.75586" filterUnits="userSpaceOnUse" color-interpolation-filters="sRGB">
<feFlood flood-opacity="0" result="BackgroundImageFix"/>
<feBlend mode="normal" in="SourceGraphic" in2="BackgroundImageFix" result="shape"/>
<feGaussianBlur stdDeviation="1" result="effect1_foregroundBlur_2605_23595"/>
</filter>
<filter id="filter5_f_2605_23595" x="87.189" y="20.7676" width="21.0122" height="10.2197" filterUnits="userSpaceOnUse" color-interpolation-filters="sRGB">
<feFlood flood-opacity="0" result="BackgroundImageFix"/>
<feBlend mode="normal" in="SourceGraphic" in2="BackgroundImageFix" result="shape"/>
<feGaussianBlur stdDeviation="1" result="effect1_foregroundBlur_2605_23595"/>
</filter>
<filter id="filter6_f_2605_23595" x="92.2539" y="15.0039" width="12.2876" height="10.0312" filterUnits="userSpaceOnUse" color-interpolation-filters="sRGB">
<feFlood flood-opacity="0" result="BackgroundImageFix"/>
<feBlend mode="normal" in="SourceGraphic" in2="BackgroundImageFix" result="shape"/>
<feGaussianBlur stdDeviation="1" result="effect1_foregroundBlur_2605_23595"/>
</filter>
</defs>
</svg>
