<svg width="353" height="52" viewBox="0 0 353 52" fill="none" xmlns="http://www.w3.org/2000/svg">
<rect width="353" height="52" rx="12" fill="#FEE500"/>
<g clip-path="url(#clip0_2605_23591)">
<path fill-rule="evenodd" clip-rule="evenodd" d="M87.5 17.5996C82.5292 17.5996 78.5 20.7126 78.5 24.5519C78.5 26.9396 80.0584 29.0446 82.4315 30.2966L81.433 33.9441C81.3448 34.2664 81.7134 34.5233 81.9965 34.3365L86.3733 31.4478C86.7427 31.4835 87.1181 31.5043 87.5 31.5043C92.4705 31.5043 96.4999 28.3914 96.4999 24.5519C96.4999 20.7126 92.4705 17.5996 87.5 17.5996Z" fill="black"/>
</g>
<path d="M123.289 19.2383C123.289 24.0371 121.971 28.1504 116.117 31.0684L115.045 29.5918C117.796 28.2295 119.431 26.6475 120.354 24.7578L115.414 25.2324L115.168 23.5449L120.951 23.1758C121.153 22.4375 121.276 21.6553 121.338 20.8203H115.994V19.2383H123.289ZM127.473 17.6738V23.8965H129.828V25.4961H127.473V33.5293H125.521V17.6738H127.473ZM138.846 19.2383C138.846 24.0371 137.527 28.1504 131.674 31.0684L130.602 29.5918C133.353 28.2295 134.987 26.6475 135.91 24.7578L130.971 25.2324L130.725 23.5449L136.508 23.1758C136.71 22.4375 136.833 21.6553 136.895 20.8203H131.551V19.2383H138.846ZM143.029 17.6738V23.8965H145.385V25.4961H143.029V33.5293H141.078V17.6738H143.029ZM153.365 18.5703C156.775 18.5703 159.289 20.2754 159.289 22.8594C159.289 25.2412 157.241 26.832 154.332 27.1133V30.0312H160.66V31.6309H146.141V30.0312H152.398V27.1133C149.507 26.832 147.459 25.2412 147.477 22.8594C147.459 20.2754 149.973 18.5703 153.365 18.5703ZM153.365 20.1523C151.045 20.1348 149.375 21.1895 149.393 22.8594C149.375 24.582 151.045 25.6016 153.365 25.6016C155.721 25.6016 157.373 24.582 157.373 22.8594C157.373 21.1895 155.721 20.1348 153.365 20.1523ZM175.408 17.6738V33.5645H173.545V17.6738H175.408ZM172.121 18.0605V32.8086H170.258V27.5H167.779V25.9004H170.258V23.5449H168.061C167.313 26.1816 165.652 28.4492 162.682 30.207L161.539 28.8184C164.835 26.876 166.347 24.3887 166.637 21.1895H162.383V19.6074H168.57C168.57 20.4072 168.518 21.1895 168.412 21.9453H170.258V18.0605H172.121ZM190.561 17.6738V27.1133H188.609V23.2285H185.902V21.6289H188.609V17.6738H190.561ZM185.182 27.5176C188.557 27.5176 190.613 28.625 190.613 30.541C190.613 32.457 188.557 33.5645 185.182 33.5645C181.824 33.5645 179.768 32.457 179.785 30.541C179.768 28.625 181.824 27.5176 185.182 27.5176ZM185.182 29.0117C182.967 29.0117 181.719 29.5391 181.719 30.541C181.719 31.5254 182.967 32.0527 185.182 32.0527C187.396 32.0527 188.662 31.5254 188.662 30.541C188.662 29.5391 187.396 29.0117 185.182 29.0117ZM183.09 20.3984C183.09 22.332 184.373 24.2832 186.834 25.1094L185.85 26.6562C184.083 26.0586 182.826 24.8457 182.141 23.3516C181.438 25.0479 180.11 26.4014 178.221 27.0781L177.201 25.5312C179.75 24.6523 181.104 22.5078 181.104 20.416V20.293H177.799V18.7109H186.377V20.293H183.09V20.3984ZM200.035 18.5703C203.393 18.5703 205.959 20.3457 205.959 23.0527C205.959 25.7949 203.393 27.5703 200.035 27.5703C196.695 27.5703 194.129 25.7949 194.146 23.0527C194.129 20.3457 196.695 18.5703 200.035 18.5703ZM200.035 20.1523C197.732 20.1348 196.027 21.2949 196.027 23.0527C196.027 24.8457 197.732 25.9707 200.035 25.9707C202.355 25.9707 204.043 24.8457 204.043 23.0527C204.043 21.2949 202.355 20.1348 200.035 20.1523ZM207.33 29.9609V31.5605H192.811V29.9609H207.33ZM222.887 30.1016V31.7188H208.367V30.1016H214.625V27.5176H210.09V22.3145H219.23V20.3457H210.055V18.7637H221.164V23.8613H212.041V25.918H221.533V27.5176H216.559V30.1016H222.887ZM242.715 30.1016V31.7188H228.195V30.1016H234.453V27.5176H229.918V22.3145H239.059V20.3457H229.883V18.7637H240.992V23.8613H231.869V25.918H241.361V27.5176H236.387V30.1016H242.715ZM256.391 19.2207V21.0137C256.391 23.1406 256.391 25.3379 255.811 28.6777L253.824 28.502C254.439 25.373 254.439 23.0703 254.439 21.0137V20.8027H245.281V19.2207H256.391ZM258.236 29.7852V31.3848H243.752V29.7852H258.236ZM272.545 17.6914V29.1699H270.576V17.6914H272.545ZM272.984 31.666V33.248H262.033V28.0098H264.002V31.666H272.984ZM263.879 18.7285C266.287 18.7285 268.15 20.3984 268.15 22.7012C268.15 25.0566 266.287 26.6914 263.879 26.6914C261.453 26.6914 259.59 25.0566 259.59 22.7012C259.59 20.3984 261.453 18.7285 263.879 18.7285ZM263.879 20.4336C262.525 20.4336 261.488 21.3301 261.506 22.7012C261.488 24.1074 262.525 24.9863 263.879 24.9863C265.197 24.9863 266.234 24.1074 266.234 22.7012C266.234 21.3301 265.197 20.4336 263.879 20.4336Z" fill="black" fill-opacity="0.85"/>
<defs>
<clipPath id="clip0_2605_23591">
<rect width="17.9999" height="18" fill="white" transform="translate(78.5 17)"/>
</clipPath>
</defs>
</svg>
