<svg width="12" height="13" viewBox="0 0 12 13" fill="none" xmlns="http://www.w3.org/2000/svg">
<path d="M5.6 0.0130014C2.41333 0.219668 0 3.013 0 6.20634V10.6663C0 11.773 0.893333 12.6663 2 12.6663H2.66667C3.4 12.6663 4 12.0663 4 11.333V8.66634C4 7.933 3.4 7.333 2.66667 7.333H1.33333V6.193C1.33333 3.633 3.30667 1.40633 5.86 1.333C6.48452 1.31426 7.10644 1.42111 7.68888 1.64723C8.27133 1.87334 8.80243 2.21411 9.25071 2.64934C9.69899 3.08456 10.0553 3.60536 10.2985 4.18087C10.5418 4.75638 10.6669 5.37487 10.6667 5.99967V7.333H9.33333C8.6 7.333 8 7.933 8 8.66634V11.333C8 12.0663 8.6 12.6663 9.33333 12.6663H10C11.1067 12.6663 12 11.773 12 10.6663V5.99967C12 2.553 9.09333 -0.213665 5.6 0.0130014Z" fill="#F04579"/>
</svg>
