<svg width="24" height="24" viewBox="0 0 24 24" fill="none" xmlns="http://www.w3.org/2000/svg">
<path fill-rule="evenodd" clip-rule="evenodd" d="M12 2C15.866 2 19 5.13401 19 9C19.14 12.13 16.63 16.3 12.81 21.58C12.622 21.8398 12.3207 21.9936 12 21.9936C11.6793 21.9936 11.3781 21.8398 11.19 21.58C7.37002 16.29 4.86002 12.12 5.00002 9C5.00002 5.13401 8.13402 2 12 2ZM12 19.31C14.67 15.53 17.14 11.54 17 9.09V9.06V9C17 6.23858 14.7614 4 12 4C9.23859 4 7.00002 6.23858 7.00002 9V9.06C6.86002 11.51 9.33002 15.5 12 19.31ZM12 6C10.3432 6 9.00002 7.34315 9.00002 9C9.00002 10.6569 10.3432 12 12 12C13.6569 12 15 10.6569 15 9C15 8.20435 14.6839 7.44129 14.1213 6.87868C13.5587 6.31607 12.7957 6 12 6ZM11 9C11 9.55228 11.4477 10 12 10C12.5523 10 13 9.55228 13 9C13 8.44772 12.5523 8 12 8C11.4477 8 11 8.44772 11 9Z" fill="#525252"/>
</svg>
