<svg width="84" height="93" viewBox="0 0 84 93" fill="none" xmlns="http://www.w3.org/2000/svg">
<g filter="url(#filter0_d_2605_22320)">
<path d="M55.9233 1.7998C68.0054 1.79988 77.7998 11.6069 77.7998 23.7042C77.7997 31.7033 73.5171 38.7005 67.1226 42.5236C73.5107 46.2783 77.7998 53.2281 77.7998 61.181C77.7997 73.1207 68.1329 82.7997 56.2082 82.7998C56.1132 82.7998 56.0181 82.7988 55.9233 82.7976V82.7903C55.848 82.7959 55.7721 82.7998 55.6954 82.7998C53.9964 82.7998 52.619 81.4207 52.619 79.7196C52.6191 78.0184 53.9964 76.6393 55.6954 76.6393C55.7721 76.6393 55.8481 76.6429 55.9233 76.6484V76.5986C63.2475 75.2304 68.7919 68.7971 68.792 61.0669C68.792 53.4658 63.4312 47.1184 56.2888 45.6076C56.2809 45.6077 56.2729 45.6083 56.2649 45.6083C56.2334 45.6083 56.202 45.6067 56.1708 45.6057C56.0884 45.6069 56.0059 45.6083 55.9233 45.6083L55.923 45.608V45.5887C54.385 45.4184 53.1886 44.1134 53.1885 42.528C53.1885 40.9426 54.3849 39.6374 55.923 39.467V39.4273C62.6146 38.4529 67.7544 32.6857 67.7544 25.7156C67.7543 18.8332 62.7431 13.1239 56.1749 12.0432C56.027 12.0561 55.8774 12.0634 55.7263 12.0634H26.9648V30.0929C26.9647 32.9282 24.6691 35.2264 21.8374 35.2264C19.0057 35.2264 16.7101 32.9282 16.71 30.0929V6.93366C16.71 6.6533 16.7329 6.37817 16.7761 6.11001C16.7842 6.05975 16.793 6.00973 16.8026 5.95997C17.2569 3.59027 19.3382 1.79982 21.8374 1.7998C21.9037 1.7998 21.9697 1.8014 22.0354 1.8039H55.7263C55.7921 1.8039 55.8577 1.80521 55.923 1.80768L55.9233 1.7998Z" fill="url(#paint0_linear_2605_22320)" shape-rendering="crispEdges"/>
<path d="M33.6345 33.8436C35.7918 33.8437 37.5406 35.595 37.5407 37.7551V78.6116C37.5407 80.7717 35.7919 82.523 33.6345 82.523C31.477 82.523 29.7279 80.7718 29.7279 78.6116V37.7551C29.728 35.595 31.477 33.8436 33.6345 33.8436Z" fill="url(#paint1_linear_2605_22320)" shape-rendering="crispEdges"/>
<path fill-rule="evenodd" clip-rule="evenodd" d="M45.5987 42.384C47.7561 42.3841 49.5049 44.1353 49.5049 46.2954V70.1689C49.5048 72.329 47.756 74.08 45.5987 74.0801C43.4413 74.0801 41.6923 72.329 41.6921 70.1689V46.2954C41.6921 44.1352 43.4412 42.384 45.5987 42.384ZM48.2154 70.1686C48.2154 70.2566 48.2107 70.3436 48.2022 70.4293C48.2064 70.3877 48.2101 70.3458 48.2123 70.3035L48.2154 70.1686Z" fill="url(#paint2_linear_2605_22320)" shape-rendering="crispEdges"/>
<path fill-rule="evenodd" clip-rule="evenodd" d="M21.6702 45.6836C23.8277 45.6837 25.5765 47.4349 25.5765 49.5951V66.7722C25.5764 68.9323 23.8276 70.6836 21.6702 70.6837C19.5129 70.6836 17.7638 68.9323 17.7637 66.7722V49.5951C17.7637 47.4349 19.5128 45.6837 21.6702 45.6836ZM21.6702 69.3926C21.6559 69.3926 21.6417 69.3916 21.6274 69.3913L21.6702 69.3926ZM21.4203 69.3797C21.4585 69.3836 21.4968 69.3872 21.5355 69.3891L21.5717 69.3897C21.5208 69.3877 21.4704 69.3846 21.4203 69.3797ZM22.1821 69.3418C22.1873 69.3408 22.1927 69.3404 22.1979 69.3393C22.2048 69.3379 22.2115 69.3357 22.2183 69.3343C22.2063 69.3368 22.1942 69.3394 22.1821 69.3418Z" fill="url(#paint3_linear_2605_22320)" shape-rendering="crispEdges"/>
<path d="M9.70634 51.7975C11.8637 51.7976 13.6126 53.5488 13.6126 55.7089V60.6581C13.6125 62.8182 11.8637 64.5694 9.70634 64.5695C7.54888 64.5695 5.79982 62.8182 5.7998 60.6581V55.7089C5.7998 53.5487 7.54887 51.7975 9.70634 51.7975Z" fill="url(#paint4_linear_2605_22320)" shape-rendering="crispEdges"/>
</g>
<defs>
<filter id="filter0_d_2605_22320" x="-0.000195503" y="-0.000195503" width="83.6" height="92.6" filterUnits="userSpaceOnUse" color-interpolation-filters="sRGB">
<feFlood flood-opacity="0" result="BackgroundImageFix"/>
<feColorMatrix in="SourceAlpha" type="matrix" values="0 0 0 0 0 0 0 0 0 0 0 0 0 0 0 0 0 0 127 0" result="hardAlpha"/>
<feOffset dy="4"/>
<feGaussianBlur stdDeviation="2.9"/>
<feComposite in2="hardAlpha" operator="out"/>
<feColorMatrix type="matrix" values="0 0 0 0 0 0 0 0 0 0 0 0 0 0 0 0 0 0 0.09 0"/>
<feBlend mode="normal" in2="BackgroundImageFix" result="effect1_dropShadow_2605_22320"/>
<feBlend mode="normal" in="SourceGraphic" in2="effect1_dropShadow_2605_22320" result="shape"/>
</filter>
<linearGradient id="paint0_linear_2605_22320" x1="41.7998" y1="1.7998" x2="41.7998" y2="154.514" gradientUnits="userSpaceOnUse">
<stop stop-color="white"/>
<stop offset="1" stop-color="white" stop-opacity="0.62"/>
</linearGradient>
<linearGradient id="paint1_linear_2605_22320" x1="41.7998" y1="1.7998" x2="41.7998" y2="154.514" gradientUnits="userSpaceOnUse">
<stop stop-color="white"/>
<stop offset="1" stop-color="white" stop-opacity="0.62"/>
</linearGradient>
<linearGradient id="paint2_linear_2605_22320" x1="41.7998" y1="1.7998" x2="41.7998" y2="154.514" gradientUnits="userSpaceOnUse">
<stop stop-color="white"/>
<stop offset="1" stop-color="white" stop-opacity="0.62"/>
</linearGradient>
<linearGradient id="paint3_linear_2605_22320" x1="41.7998" y1="1.7998" x2="41.7998" y2="154.514" gradientUnits="userSpaceOnUse">
<stop stop-color="white"/>
<stop offset="1" stop-color="white" stop-opacity="0.62"/>
</linearGradient>
<linearGradient id="paint4_linear_2605_22320" x1="41.7998" y1="1.7998" x2="41.7998" y2="154.514" gradientUnits="userSpaceOnUse">
<stop stop-color="white"/>
<stop offset="1" stop-color="white" stop-opacity="0.62"/>
</linearGradient>
</defs>
</svg>
