<svg width="165" height="40" viewBox="0 0 165 40" fill="none" xmlns="http://www.w3.org/2000/svg">
<path d="M24.248 0C30.093 3.75235e-05 34.832 4.76781 34.832 10.6484C34.8318 14.5367 32.7594 17.9375 29.666 19.7959C32.7564 21.6211 34.832 25.0002 34.832 28.8662C34.8318 34.67 30.1544 39.3749 24.3857 39.375C24.3399 39.375 24.2938 39.3746 24.248 39.374V39.3701C24.2117 39.3728 24.1747 39.375 24.1377 39.375C23.316 39.3748 22.6496 38.7046 22.6494 37.8779C22.6494 37.0511 23.3159 36.3801 24.1377 36.3799C24.1747 36.3799 24.2117 36.3821 24.248 36.3848V36.3604C27.7912 35.6952 30.4735 32.5682 30.4736 28.8105C30.4736 25.1156 27.8801 22.0303 24.4248 21.2959C24.4212 21.2959 24.4176 21.2959 24.4141 21.2959C24.3989 21.2959 24.3833 21.2954 24.3682 21.2949C24.3283 21.2955 24.288 21.2959 24.248 21.2959V21.2861C23.5042 21.2033 22.926 20.5693 22.9258 19.7988C22.9258 19.0282 23.504 18.3934 24.248 18.3105V18.291C27.4852 17.8173 29.9715 15.0141 29.9717 11.626C29.9716 8.28041 27.5476 5.50486 24.3701 4.97949C24.2987 4.98573 24.2263 4.98925 24.1533 4.98926H10.2393V13.7539C10.239 15.1319 9.12845 16.2489 7.75879 16.249C6.389 16.249 5.27853 15.132 5.27832 13.7539V2.49609C5.27832 2.35998 5.28873 2.2259 5.30957 2.0957C5.31349 2.07129 5.31863 2.04664 5.32324 2.02246C5.54305 0.870526 6.54972 6.99468e-06 7.75879 0C7.79077 4.62036e-06 7.82281 0.00074269 7.85449 0.00195312H24.1533C24.185 0.0019581 24.2166 0.00271303 24.248 0.00390625V0ZM13.4658 15.5771C14.5094 15.5773 15.3554 16.4285 15.3555 17.4785V37.3389C15.3555 38.3889 14.5094 39.2401 13.4658 39.2402C12.4221 39.2402 11.5762 38.389 11.5762 37.3389V17.4785C11.5762 16.4285 12.4221 15.5772 13.4658 15.5771ZM19.2539 19.7285C20.2974 19.7287 21.1436 20.5799 21.1436 21.6299V33.2354C21.1433 34.2851 20.2973 35.1355 19.2539 35.1357C18.2104 35.1357 17.3636 34.2852 17.3633 33.2354V21.6299C17.3633 20.5798 18.2102 19.7285 19.2539 19.7285ZM66.998 5.20898C72.771 5.20898 76.4377 8.40669 76.5938 13.5537H71.6016C71.4846 11.0973 69.7291 9.65444 66.9209 9.6543C63.8394 9.6543 61.8496 11.1361 61.8496 13.5146C61.8497 15.5421 62.942 16.6729 65.3213 17.2188L69.8066 18.1934C74.6824 19.2462 77.0625 21.742 77.0625 25.9922C77.0624 31.2951 72.9274 34.7266 66.6475 34.7266C60.5625 34.7266 56.5838 31.4899 56.4668 26.3818H61.46C61.499 28.7994 63.4489 30.2422 66.6475 30.2422C69.963 30.2422 72.0693 28.7994 72.0693 26.4209C72.0693 24.5103 71.0941 23.38 68.7539 22.873L64.2295 21.8584C59.3927 20.8056 56.8564 18.0371 56.8564 13.6699C56.8567 8.67924 60.9915 5.20916 66.998 5.20898ZM89.3799 14.3721C94.6456 14.3721 98.234 17.2966 98.7412 21.9365H93.9834C93.4373 19.753 91.8375 18.6221 89.5752 18.6221C86.5328 18.6221 84.5041 20.9228 84.5039 24.5488C84.5039 28.175 86.3766 30.4374 89.4189 30.4375C91.7983 30.4375 93.4763 29.2676 93.9834 27.1621H98.7803C98.195 31.6461 94.4506 34.7266 89.4189 34.7266C83.5681 34.7265 79.7461 30.6706 79.7461 24.5488C79.7463 18.5833 83.6853 14.3722 89.3799 14.3721ZM110.787 14.3721C116.56 14.3721 120.227 18.2325 120.227 24.2373V25.6797L105.716 25.7188C106.067 29.1111 107.862 30.8271 111.021 30.8271C113.635 30.827 115.35 29.813 115.896 27.9805H120.305C119.486 32.1916 115.975 34.7264 110.943 34.7266C105.209 34.7266 101.191 30.5538 101.191 24.5879C101.192 18.5443 105.131 14.3721 110.787 14.3721ZM155.469 14.3721C161.242 14.3721 164.908 18.2325 164.908 24.2373V25.6797L150.398 25.7188C150.749 29.1111 152.544 30.8271 155.703 30.8271C158.316 30.8271 160.033 29.8131 160.579 27.9805H164.986C164.167 32.1917 160.657 34.7266 155.625 34.7266C149.891 34.7266 145.873 30.5537 145.873 24.5879C145.873 18.5443 149.813 14.3722 155.469 14.3721ZM134.996 14.3721C139.833 14.3722 142.329 17.3745 142.329 22.3652V34.2197H137.57V23.4961C137.57 20.26 135.971 18.7002 133.514 18.7002C130.588 18.7002 128.794 20.7283 128.794 23.8477V34.2197H124.035V14.957H128.442L128.833 17.4531C130.042 15.5035 132.383 14.3721 134.996 14.3721ZM7.67773 21.332C8.72127 21.3321 9.56718 22.1835 9.56738 23.2334V31.584C9.56722 32.6339 8.72129 33.4853 7.67773 33.4854C6.63413 33.4853 5.78825 32.6339 5.78809 31.584V23.2334C5.78829 22.1835 6.63415 21.3321 7.67773 21.332ZM20.5127 33.3613C20.5147 33.3413 20.5165 33.3211 20.5176 33.3008L20.5195 33.2344C20.5195 33.2771 20.5168 33.3197 20.5127 33.3613ZM7.9248 32.833C7.92722 32.8325 7.93021 32.8325 7.93262 32.832C7.93583 32.8314 7.93919 32.8298 7.94238 32.8291C7.93668 32.8303 7.93054 32.8319 7.9248 32.833ZM1.88965 24.3047C2.93332 24.3048 3.7793 25.156 3.7793 26.2061V28.6113C3.77929 29.6614 2.93331 30.5126 1.88965 30.5127C0.846009 30.5126 8.68148e-06 29.6614 0 28.6113V26.2061C0 25.156 0.846004 24.3048 1.88965 24.3047ZM45.6494 21.7754C47.205 21.7756 48.4657 23.0362 48.4658 24.5918C48.4658 26.1475 47.2051 27.409 45.6494 27.4092C44.0936 27.4092 42.832 26.1476 42.832 24.5918C42.8321 23.0361 44.0936 21.7754 45.6494 21.7754ZM110.826 18.2715C108.018 18.2715 106.301 19.7923 105.833 22.6777H115.507C115.507 20.0263 113.674 18.2716 110.826 18.2715ZM155.508 18.2715C152.699 18.2716 150.984 19.7923 150.516 22.6777H160.188C160.188 20.0262 158.355 18.2715 155.508 18.2715ZM45.6494 11.4463C47.205 11.4465 48.4657 12.7071 48.4658 14.2627C48.4658 15.8184 47.2051 17.0799 45.6494 17.0801C44.0936 17.0801 42.832 15.8185 42.832 14.2627C42.8321 12.707 44.0936 11.4463 45.6494 11.4463Z" fill="url(#paint0_linear_2605_22276)"/>
<defs>
<linearGradient id="paint0_linear_2605_22276" x1="0" y1="0" x2="87.4176" y2="66.3739" gradientUnits="userSpaceOnUse">
<stop stop-color="#FFE031"/>
<stop offset="1" stop-color="#F04579"/>
</linearGradient>
</defs>
</svg>
